<?xml version="1.0" standalone="no"?>
<!DOCTYPE svg PUBLIC "-//W3C//DTD SVG 20010904//EN"
 "http://www.w3.org/TR/2001/REC-SVG-20010904/DTD/svg10.dtd">
<svg version="1.0" xmlns="http://www.w3.org/2000/svg"
 width="1366.000000pt" height="1500.000000pt" viewBox="0 0 1366.000000 1500.000000"
 preserveAspectRatio="xMidYMid meet">

<g transform="translate(0.000000,1500.000000) scale(0.100000,-0.100000)"
fill="#000000" stroke="none">
<path d="M6815 14554 c-27 -2 -115 -8 -195 -14 -1024 -76 -2048 -428 -2920
-1005 -349 -230 -619 -452 -941 -774 -381 -381 -654 -729 -918 -1169 -1261
-2100 -1124 -4756 348 -6722 166 -223 337 -417 570 -651 502 -501 975 -841
1611 -1158 701 -349 1417 -547 2250 -623 175 -16 785 -16 960 0 833 76 1549
274 2250 623 636 317 1109 657 1611 1158 233 234 404 428 570 651 785 1049
1208 2319 1209 3631 0 97 -3 204 -6 238 l-7 61 -253 0 c-232 0 -253 -1 -257
-17 -4 -17 -5 -17 -6 0 -1 15 -14 17 -120 17 -105 0 -120 -2 -124 -17 -4 -17
-5 -17 -6 0 -1 15 -15 17 -141 17 l-140 0 0 -187 c0 -192 -6 -263 -21 -263 -5
0 -9 94 -9 209 0 115 -3 216 -6 225 -4 11 -19 16 -45 16 -28 0 -39 4 -39 15 0
11 12 15 45 15 42 0 45 2 41 23 -3 12 -7 72 -11 132 -8 152 -41 400 -76 585
-165 853 -542 1642 -1112 2325 -114 135 -456 482 -562 569 -64 52 -71 55 -83
39 -7 -10 -19 -26 -27 -36 -8 -9 -15 -22 -15 -28 0 -5 -5 -7 -12 -3 -7 5 -9 0
-6 -14 4 -15 2 -19 -8 -15 -9 3 -14 -1 -14 -12 0 -9 -4 -14 -9 -11 -5 3 -12
-6 -15 -19 -4 -14 -11 -23 -16 -20 -6 3 -10 -1 -10 -9 0 -9 -4 -16 -10 -16 -5
0 -10 -7 -10 -16 0 -9 -5 -13 -12 -9 -7 4 9 -13 35 -37 l48 -43 -44 -43 -43
-42 -42 35 -41 36 -31 -32 c-16 -18 -30 -36 -30 -40 0 -5 -4 -9 -10 -9 -16 0
-12 13 15 45 26 32 27 33 66 67 14 13 38 41 55 63 16 22 41 54 56 70 16 17 28
33 28 37 0 3 15 22 33 41 45 48 67 76 67 86 0 4 -48 46 -107 92 -413 325 -884
590 -1378 775 -127 47 -174 74 -130 74 9 0 83 -25 163 -56 509 -195 964 -454
1389 -791 l92 -73 23 23 c13 13 36 41 52 63 17 21 33 41 36 44 3 3 13 15 22
28 12 18 17 20 26 9 8 -9 3 -21 -20 -47 -17 -19 -35 -34 -40 -32 -5 1 -7 -2
-4 -7 4 -5 1 -13 -6 -18 -7 -4 -25 -24 -40 -44 l-27 -37 107 -95 c406 -360
788 -833 1054 -1304 45 -79 85 -143 89 -143 5 0 17 8 27 18 10 10 24 16 30 14
7 -2 12 1 12 7 0 6 7 11 15 11 8 0 15 5 15 11 0 5 4 8 9 4 5 -3 17 2 25 11 9
8 16 13 16 9 0 -3 14 3 30 15 28 20 30 20 30 3 1 -17 1 -17 11 0 5 9 14 17 20
17 5 0 23 10 40 22 17 13 44 23 61 24 17 1 34 8 39 15 4 7 11 10 16 6 9 -9
-37 -48 -48 -41 -4 2 -10 -2 -13 -8 -5 -10 -7 -10 -12 0 -8 18 -27 15 -20 -4
5 -12 2 -15 -9 -10 -9 3 -18 -1 -21 -9 -3 -7 -12 -11 -20 -8 -9 3 -12 0 -9 -8
4 -10 -4 -15 -22 -16 -15 0 -32 -8 -37 -15 -6 -8 -17 -13 -23 -11 -7 3 -13 -1
-13 -7 0 -7 -7 -10 -15 -6 -8 3 -15 1 -15 -5 0 -6 -7 -9 -15 -5 -8 3 -15 1
-15 -5 0 -6 -4 -8 -9 -4 -5 3 -16 -2 -24 -10 -9 -8 -21 -15 -27 -15 -6 0 -9
-4 -6 -9 4 -5 0 -11 -6 -13 -9 -3 12 -56 64 -164 272 -563 452 -1252 484
-1848 l7 -126 530 0 529 0 -7 83 c-69 858 -280 1606 -660 2344 -293 569 -634
1034 -1104 1504 -502 501 -975 841 -1611 1158 -696 346 -1424 549 -2235 621
-120 11 -686 21 -780 14z m215 -204 c0 -89 3 -120 13 -121 10 0 10 -2 0 -6 -9
-3 -13 -29 -13 -78 0 -41 -4 -77 -10 -80 -7 -4 -10 65 -10 199 0 131 4 206 10
206 6 0 10 -47 10 -120z m1714 -148 c-4 -9 -8 -24 -10 -32 -8 -42 -28 -101
-35 -106 -4 -2 -6 -11 -2 -19 3 -8 0 -15 -5 -15 -18 0 -24 20 -12 35 7 8 9 15
5 15 -4 0 -2 7 5 15 7 8 9 15 5 15 -4 0 -2 7 5 15 7 8 9 15 6 15 -4 0 -4 6 1
13 4 6 8 17 9 22 5 28 27 68 31 57 3 -7 2 -20 -3 -30z m-3625 -235 c14 -41 27
-65 33 -61 6 4 8 2 5 -3 -6 -10 28 -123 57 -188 7 -16 30 -78 52 -136 l38
-107 46 14 c416 130 739 198 1146 240 232 25 760 25 989 1 224 -24 454 -61
635 -102 85 -20 167 -38 183 -42 15 -3 27 -12 27 -19 0 -19 3 -19 -161 21
-669 160 -1427 178 -2127 49 -238 -44 -701 -169 -716 -193 -8 -13 86 -261 99
-261 18 0 59 -112 44 -120 -7 -5 -4 -21 10 -53 12 -25 21 -51 21 -58 0 -6 6
-9 13 -6 41 15 220 68 222 65 8 -10 32 -109 26 -112 -3 -2 -52 -18 -108 -35
-57 -17 -103 -34 -103 -36 0 -3 17 -50 37 -105 25 -68 42 -100 52 -100 12 0
13 -2 3 -8 -10 -7 -2 -36 33 -127 25 -65 43 -120 40 -124 -10 -9 -22 17 -85
189 -34 91 -67 179 -74 195 -8 17 -17 40 -20 52 -7 21 -8 21 -52 6 -25 -8 -47
-14 -49 -12 -2 2 -13 27 -24 56 l-20 52 37 12 c20 6 41 15 45 19 5 4 1 33 -9
64 -13 40 -22 55 -32 51 -55 -21 -61 -19 -82 30 -11 26 -20 50 -20 55 0 5 16
14 35 21 19 7 34 16 33 19 -2 3 -25 64 -52 136 l-48 132 -82 -30 c-232 -85
-571 -241 -770 -357 -49 -28 -95 -51 -102 -51 -32 0 -8 21 84 73 254 142 447
234 707 334 l151 58 -29 75 c-16 41 -40 109 -54 150 -14 41 -29 80 -33 85 -4
6 -15 35 -25 65 -10 30 -23 69 -31 85 -30 67 -72 194 -66 200 8 7 41 -66 71
-158z m3568 37 c-9 -9 -28 6 -21 18 4 6 10 6 17 -1 6 -6 8 -13 4 -17z m-12
-41 c-3 -15 -11 -31 -17 -34 -6 -4 -7 -12 -4 -18 4 -6 2 -11 -4 -11 -7 0 -10
-7 -6 -15 3 -9 0 -15 -9 -15 -18 0 -18 2 -3 51 6 22 15 39 21 39 5 0 7 7 3 15
-3 9 0 15 10 15 13 0 15 -6 9 -27z m-40 -113 c3 -5 -1 -10 -9 -10 -9 0 -16 5
-16 10 0 6 4 10 9 10 6 0 13 -4 16 -10z m-10 -30 c4 -6 1 -17 -5 -25 -7 -8 -9
-15 -5 -15 4 0 3 -6 -4 -13 -8 -10 -7 -17 2 -26 6 -7 8 -11 2 -9 -5 2 -12 -1
-13 -7 -2 -5 -7 -14 -12 -20 -10 -13 -25 -76 -21 -92 1 -7 -3 -13 -8 -13 -6 0
-8 -7 -5 -15 4 -8 2 -15 -4 -15 -9 0 -36 -86 -37 -115 0 -5 -3 -12 -6 -15 -4
-3 -14 -32 -23 -65 -8 -33 -22 -81 -30 -107 -11 -36 -12 -48 -3 -48 7 0 5 -5
-4 -10 -9 -5 -25 -39 -35 -75 -10 -36 -22 -65 -26 -65 -14 0 -15 -5 117 430
34 113 70 233 80 268 18 61 27 73 40 52z m-1585 -380 c10 -6 11 -10 3 -10 -10
0 -13 -52 -13 -228 l0 -228 201 -12 c111 -6 203 -13 204 -14 1 -2 0 -29 -2
-60 l-5 -57 -199 6 -199 6 0 -121 c0 -75 -4 -122 -10 -122 -6 0 -10 47 -10
120 l0 120 -37 1 c-21 0 -59 0 -84 -1 l-46 -1 -5 58 c-3 32 -4 61 -1 66 2 4
42 7 89 7 l84 0 0 240 c0 132 3 240 8 240 4 0 14 -5 22 -10z m-171 -60 l2 -60
-38 0 c-21 0 -48 -3 -60 -6 -20 -5 -21 -2 -25 56 -1 34 -1 64 1 66 2 2 30 4
61 4 l57 0 2 -60z m361 38 c0 -13 -3 -40 -6 -60 l-7 -38 -52 0 -53 0 -4 60 -3
60 63 0 c58 0 62 -2 62 -22z m358 -13 c1 -1 -1 -28 -4 -60 l-7 -57 -53 4 c-30
3 -56 7 -59 10 -3 3 -3 31 1 62 l7 56 56 -6 c31 -4 57 -8 59 -9z m325 -51 c25
-4 36 -11 33 -19 -2 -7 -8 -34 -11 -59 -7 -45 -9 -47 -36 -42 -94 19 -91 17
-86 39 3 12 9 39 13 60 5 33 10 38 28 33 11 -2 38 -8 59 -12z m-1770 -1 c3 -5
8 -31 12 -59 l6 -50 -56 -11 c-55 -10 -56 -9 -61 16 -3 14 -10 41 -14 59 -9
34 -13 31 55 45 34 8 54 7 58 0z m2106 -75 c28 -6 51 -14 51 -18 0 -3 -7 -30
-16 -59 -14 -49 -17 -52 -41 -46 -14 3 -38 9 -54 12 -16 3 -29 9 -29 13 0 23
24 110 31 110 4 0 30 -5 58 -12z m-2449 -45 c7 -27 13 -52 14 -57 1 -8 -76
-36 -101 -36 -8 0 -26 50 -37 110 -1 5 72 28 95 29 11 1 20 -14 29 -46z m1130
-102 l0 -58 -127 -7 c-71 -4 -149 -9 -174 -13 l-46 -5 -8 57 c-3 31 -4 59 -2
62 6 5 193 19 295 22 l62 1 0 -59z m423 44 c53 -3 117 -8 140 -11 l43 -6 -7
-55 c-4 -30 -9 -56 -11 -58 -3 -3 -180 10 -295 21 l-53 5 0 53 c0 29 3 56 7
59 3 4 22 5 42 2 20 -2 80 -7 134 -10z m-1018 -90 c4 -31 6 -58 4 -60 -6 -5
-290 -58 -319 -59 -21 -1 -26 5 -36 52 -7 28 -9 54 -5 56 8 5 294 60 338 65 7
0 14 -21 18 -54z m1595 10 c177 -36 203 -44 196 -60 -2 -7 -8 -30 -12 -50 -3
-20 -12 -38 -18 -41 -6 -2 -83 11 -171 30 l-160 33 3 44 c3 56 8 69 25 69 8 0
70 -11 137 -25z m996 -56 c27 -12 51 -23 53 -25 8 -7 -42 -104 -53 -104 -20 1
-98 40 -94 47 1 5 11 29 22 56 10 26 20 47 21 47 1 0 24 -10 51 -21z m-3799
-52 l21 -52 -50 -23 c-28 -13 -54 -19 -58 -15 -4 4 -17 29 -28 55 l-20 46 46
21 c26 11 52 20 57 21 6 0 20 -24 32 -53z m5623 43 c0 -5 -8 -18 -17 -28 -37
-39 -53 -63 -53 -78 0 -8 -4 -12 -10 -9 -5 3 -10 2 -10 -4 0 -6 -8 -7 -17 -4
-12 5 -15 2 -10 -10 4 -11 1 -17 -8 -17 -20 0 -19 29 0 36 8 4 12 10 9 15 -3
5 3 6 12 2 12 -4 15 -3 10 5 -4 7 -1 12 9 12 11 0 15 5 11 15 -3 8 -2 14 2 12
4 -1 7 0 7 3 1 8 49 58 58 59 4 1 7 -3 7 -9z m-2258 -89 c199 -69 208 -73 208
-86 0 -7 -9 -34 -20 -59 l-19 -45 -38 16 c-21 9 -94 36 -163 60 -69 24 -125
47 -124 51 5 33 28 102 35 102 4 0 58 -18 121 -39z m-1897 -46 c4 -31 5 -59 1
-62 -3 -4 -72 -15 -154 -24 -81 -10 -206 -30 -278 -44 -72 -14 -133 -25 -136
-25 -6 0 -28 81 -28 102 0 19 246 67 515 101 76 10 73 12 80 -48z m-3483 -15
c14 -16 28 -26 32 -23 3 4 6 2 6 -4 0 -14 81 -99 91 -95 5 1 8 -4 7 -10 -2 -7
3 -12 10 -10 6 1 12 -5 12 -13 0 -8 5 -15 10 -15 6 0 10 -7 10 -16 0 -8 5 -12
10 -9 6 3 10 3 10 -2 0 -4 16 -25 34 -45 24 -26 40 -36 53 -32 14 5 15 4 4 -4
-12 -9 -9 -16 17 -40 29 -28 41 -52 26 -52 -9 0 -94 93 -94 103 0 5 -4 5 -10
2 -5 -3 -10 1 -10 9 0 9 -7 16 -15 16 -8 0 -15 4 -15 9 0 8 -59 72 -208 224
-23 23 -31 37 -21 37 8 0 26 -13 41 -30z m6149 -5 l50 -26 -28 -49 c-15 -28
-32 -50 -36 -50 -7 0 -87 38 -95 45 -5 4 47 105 54 105 2 0 27 -11 55 -25z
m-4457 -42 l26 -52 -46 -25 c-26 -14 -50 -26 -54 -26 -4 0 -19 22 -34 50 l-27
49 23 14 c28 18 82 46 84 44 1 -1 13 -25 28 -54z m5810 38 c3 -5 -8 -19 -24
-32 -16 -13 -30 -29 -30 -36 0 -7 -7 -10 -17 -6 -13 5 -15 2 -10 -11 6 -14 3
-17 -9 -12 -12 4 -14 1 -9 -14 5 -16 3 -19 -11 -13 -13 5 -16 3 -11 -10 7 -18
-8 -24 -18 -7 -10 16 85 120 110 120 9 0 12 6 9 15 -7 16 11 21 20 6z m-6559
-51 c3 -5 -24 -31 -61 -57 -178 -128 -437 -341 -428 -354 3 -5 2 -14 -2 -20
-4 -8 -9 -7 -15 2 -10 18 -352 -324 -495 -496 -642 -767 -1042 -1678 -1163
-2645 -23 -179 -40 -405 -33 -432 4 -16 21 -18 173 -18 154 0 169 2 170 18 1
16 2 16 6 0 4 -16 18 -18 113 -18 l109 0 5 33 c3 17 8 75 11 127 3 52 8 96 10
98 2 3 29 1 59 -2 l55 -7 -6 -125 -6 -124 31 0 c18 0 32 1 33 3 0 1 6 71 14
156 8 84 16 155 19 158 3 3 31 2 62 -2 l56 -7 -6 -37 c-14 -88 -19 -271 -8
-271 7 0 13 8 13 18 1 16 2 16 6 0 4 -16 20 -18 164 -18 135 0 159 -2 159 -15
0 -13 -27 -15 -180 -15 l-180 0 0 -125 0 -125 -60 0 -60 0 0 125 0 125 -35 0
c-33 0 -35 -2 -35 -35 l0 -35 -60 0 -60 0 0 35 0 35 -290 0 -290 0 0 -177 c0
-169 13 -424 26 -505 4 -30 2 -38 -9 -38 -10 0 -17 16 -21 53 -13 105 -26 356
-26 510 l0 157 -355 0 c-309 0 -355 2 -355 15 0 13 23 15 145 15 131 0 145 2
146 18 1 16 2 16 6 0 4 -15 17 -18 89 -18 60 0 84 4 85 13 0 10 2 10 6 0 3 -9
37 -13 118 -13 l114 0 5 33 c2 17 9 102 16 187 45 623 211 1232 494 1815 124
254 194 377 341 600 202 305 420 570 694 839 83 81 151 150 151 151 0 2 -7 11
-16 19 -8 9 -12 21 -9 26 4 7 14 3 26 -11 l18 -21 113 95 c116 97 378 297 390
297 4 0 10 -4 13 -10z m5032 -131 c76 -39 143 -75 150 -81 12 -9 -2 -47 -35
-96 -7 -10 -44 5 -165 68 l-157 82 25 49 c14 27 29 49 34 49 5 0 72 -32 148
-71z m490 -1 l43 -29 -33 -49 -32 -48 -38 21 c-59 33 -62 40 -33 86 14 22 26
45 26 51 0 12 6 9 67 -32z m-847 -70 c78 -33 307 -143 318 -153 2 -1 -7 -25
-20 -51 -12 -27 -23 -50 -23 -51 -1 -2 -78 33 -171 76 -93 43 -214 95 -269
117 -55 21 -101 39 -103 40 -1 1 7 26 18 57 l21 56 67 -25 c37 -14 110 -44
162 -66z m-4237 36 c31 -52 29 -58 -31 -92 l-40 -22 -16 25 c-52 81 -52 70 -4
104 24 16 48 30 53 30 6 0 23 -20 38 -45z m-1133 -88 c0 -2 -8 -10 -17 -17
-16 -13 -17 -12 -4 4 13 16 21 21 21 13z m-360 -50 c0 -2 -8 -10 -17 -17 -16
-13 -17 -12 -4 4 13 16 21 21 21 13z m486 -43 c-9 -9 -38 26 -31 38 5 6 13 3
22 -11 8 -12 13 -24 9 -27z m1176 -1 l27 -48 -146 -97 c-164 -109 -143 -106
-196 -26 l-18 27 143 96 c79 53 148 96 153 96 6 0 22 -22 37 -48z m5209 12
l49 -36 -37 -44 c-21 -24 -39 -44 -41 -44 -2 0 -23 14 -48 31 -26 19 -40 36
-36 43 29 45 58 86 61 86 2 0 25 -16 52 -36z m1250 19 c13 -16 12 -17 -3 -4
-17 13 -22 21 -14 21 2 0 10 -8 17 -17z m-6923 -56 l32 -45 -39 -31 c-21 -17
-43 -31 -49 -31 -5 0 -26 20 -45 43 l-36 44 47 35 c26 20 49 34 52 33 3 -2 20
-24 38 -48z m800 -22 c12 -25 22 -49 22 -54 0 -5 -47 -34 -103 -65 -57 -32
-168 -99 -247 -150 l-144 -94 -26 37 c-14 20 -29 42 -34 48 -5 9 38 42 136
107 126 82 353 216 369 216 3 0 15 -20 27 -45z m4535 3 c34 -22 99 -68 144
-100 l83 -59 -37 -49 -36 -48 -71 52 c-39 29 -104 74 -143 101 -40 26 -73 50
-73 52 0 8 61 93 66 93 3 0 33 -19 67 -42z m-5933 -53 c6 -8 9 -19 5 -25 -7
-11 -34 15 -35 33 0 12 17 8 30 -8z m7661 -22 c13 -16 12 -17 -3 -4 -17 13
-22 21 -14 21 2 0 10 -8 17 -17z m-7560 -85 l77 -82 47 42 c46 41 49 42 68 25
10 -10 28 -31 40 -47 l20 -28 -47 -40 -47 -40 23 -22 c12 -11 26 -20 30 -18 5
1 8 -4 8 -12 0 -35 34 -21 116 50 48 40 90 74 95 74 4 0 23 -19 43 -42 l36
-43 -23 -18 c-12 -10 -53 -46 -91 -79 -60 -54 -66 -63 -52 -73 9 -7 16 -18 16
-24 0 -7 4 -10 9 -6 5 3 11 -1 13 -9 2 -9 34 12 92 61 48 41 89 73 91 71 2 -2
19 -23 38 -47 l35 -44 -79 -65 c-43 -36 -79 -70 -79 -74 0 -5 4 -7 9 -4 5 3 9
-6 9 -19 0 -29 -5 -31 -29 -9 -17 15 -26 9 -142 -105 l-123 -121 -42 43 -43
43 126 123 126 122 -31 32 -30 31 -33 -32 -33 -32 -37 38 c-20 21 -37 42 -37
48 0 6 13 23 29 38 l30 29 -27 27 c-15 15 -39 42 -54 60 -16 18 -28 29 -28 25
0 -3 -11 7 -25 24 -44 51 -94 99 -100 93 -3 -3 -5 0 -5 7 0 7 -18 30 -40 51
-36 35 -50 60 -33 60 3 0 41 -37 84 -82z m5716 -19 c132 -88 274 -190 320
-231 l21 -20 -31 -43 c-18 -24 -35 -44 -39 -44 -4 -1 -53 34 -110 78 -57 43
-163 118 -235 166 -73 48 -133 89 -133 93 0 12 51 92 60 92 5 0 71 -41 147
-91z m483 -179 c0 -5 -5 -10 -11 -10 -5 0 -7 5 -4 10 3 6 8 10 11 10 2 0 4 -4
4 -10z m532 -133 c-49 -52 -60 -53 -103 -11 l-39 38 42 43 42 43 43 -42 43
-42 -28 -29z m-567 64 c-7 -22 -25 -29 -25 -11 0 12 23 40 28 35 2 -2 1 -13
-3 -24z m-25 -37 c0 -8 -4 -12 -10 -9 -5 3 -10 13 -10 21 0 8 5 12 10 9 6 -3
10 -13 10 -21z m-20 -14 c0 -6 -8 -20 -19 -31 l-18 -20 -6 21 c-3 13 0 20 9
20 8 0 14 5 14 10 0 6 5 10 10 10 6 0 10 -5 10 -10z m-63 -70 c-2 -24 -17 -15
-17 11 0 11 4 18 9 14 6 -3 9 -14 8 -25z m385 -228 c79 -82 162 -171 184 -197
l39 -48 -45 -38 -45 -39 -54 63 c-30 34 -121 129 -203 212 -81 82 -148 151
-148 153 0 1 16 21 36 42 l37 39 27 -19 c14 -10 92 -86 172 -168z m525 81 l33
-40 -46 -38 -47 -39 -38 45 -38 44 42 37 c23 21 46 36 51 35 5 -2 24 -21 43
-44z m-7218 -58 c0 -5 -15 -28 -34 -49 l-35 -39 -45 37 c-49 40 -49 40 -1 97
l30 37 43 -37 c23 -20 42 -40 42 -46z m285 46 l38 -39 -83 -94 c-46 -51 -98
-110 -115 -131 l-30 -37 -47 36 c-53 42 -56 29 33 134 75 88 151 170 159 170
4 0 24 -18 45 -39z m477 -14 c-8 -8 -11 -7 -11 4 0 20 13 34 18 19 3 -7 -1
-17 -7 -23z m66 -40 c18 -11 16 -24 -2 -24 -8 0 -15 5 -15 10 0 5 -9 18 -21
28 -11 10 -18 23 -14 29 5 8 13 3 23 -12 9 -13 22 -27 29 -31z m6189 -62 c38
-44 88 -103 111 -132 l43 -51 -47 -38 -46 -38 -36 44 c-20 24 -71 84 -114 134
l-77 90 37 38 c21 21 43 37 49 36 6 -2 43 -39 80 -83z m-6069 5 c17 -20 30
-20 1813 -20 1783 0 1796 0 1813 20 9 11 23 20 31 20 18 0 46 -27 46 -45 0
-18 -28 -45 -46 -45 -8 0 -22 9 -31 20 -17 20 -30 20 -1813 20 -1783 0 -1796
0 -1813 -20 -9 -11 -23 -20 -31 -20 -18 0 -46 27 -46 45 0 18 28 45 46 45 8 0
22 -9 31 -20z m-133 -126 c21 -21 20 -41 -4 -61 -16 -14 -20 -30 -20 -78 l0
-60 142 -165 c77 -91 129 -154 115 -140 -14 14 -80 88 -146 165 l-120 140 -1
60 c0 48 -4 64 -20 78 -11 9 -20 23 -20 31 0 18 27 46 45 46 7 0 21 -7 29 -16z
m263 -4 c17 -20 30 -20 1798 -20 1768 0 1781 0 1798 20 9 11 23 20 31 20 18 0
46 -27 46 -45 0 -18 -28 -45 -46 -45 -8 0 -22 9 -31 20 -17 20 -30 20 -1798
20 -1768 0 -1781 0 -1798 -20 -9 -11 -23 -20 -31 -20 -18 0 -46 27 -46 45 0
18 28 45 46 45 8 0 22 -9 31 -20z m6358 -25 c17 -25 28 -48 26 -52 -7 -12 -80
-63 -88 -63 -11 1 -65 80 -61 90 3 10 79 69 88 70 3 0 19 -21 35 -45z m-7700
-17 c24 -18 44 -36 45 -40 0 -12 -54 -87 -63 -88 -5 0 -29 14 -53 31 l-45 31
17 26 c25 39 49 71 52 72 2 0 23 -15 47 -32z m529 -66 l28 -30 -96 -124 c-53
-67 -131 -173 -172 -234 l-76 -112 -49 31 c-27 16 -49 32 -49 34 0 17 168 251
283 395 76 95 77 96 131 40z m683 -22 c17 -20 30 -20 1908 -20 1878 0 1891 0
1908 20 20 24 40 25 61 4 20 -20 20 -38 0 -58 -21 -21 -41 -20 -61 4 -17 20
-30 20 -1908 20 -1878 0 -1891 0 -1908 -20 -9 -11 -23 -20 -31 -20 -18 0 -46
27 -46 45 0 18 28 45 46 45 8 0 22 -9 31 -20z m-1007 -120 c0 -4 -37 -64 -83
-132 -46 -67 -88 -132 -94 -142 -10 -19 -13 -18 -62 13 l-50 33 26 41 c38 62
101 155 140 209 l35 48 44 -31 c24 -16 44 -34 44 -39z m8784 25 c-4 -8 -9 -13
-13 -10 -4 2 -29 -7 -56 -20 -57 -29 -52 -28 -52 -10 0 8 7 14 16 13 9 -2 15
3 13 10 -1 8 2 11 8 7 6 -3 17 1 25 9 9 8 22 13 30 10 8 -4 15 -1 15 6 0 6 4
9 10 5 5 -3 7 -12 4 -20z m-5597 -35 c17 -20 31 -20 848 -22 l830 -3 -829 -2
c-814 -3 -830 -3 -848 -23 -10 -11 -25 -20 -33 -20 -17 0 -45 27 -45 45 0 18
28 45 46 45 8 0 22 -9 31 -20z m1757 4 c9 -8 16 -22 16 -29 0 -7 -7 -21 -16
-29 -8 -9 -22 -16 -29 -16 -7 0 -21 7 -29 16 -9 8 -16 22 -16 29 0 7 7 21 16
29 8 9 22 16 29 16 7 0 21 -7 29 -16z m-3807 -24 c17 -20 31 -20 928 -22 l910
-3 -909 -2 c-894 -3 -910 -3 -928 -23 -10 -11 -25 -20 -33 -20 -17 0 -45 27
-45 45 0 18 28 45 46 45 8 0 22 -9 31 -20z m6334 -125 c49 -77 89 -145 89
-151 0 -7 -21 -24 -47 -40 -44 -25 -48 -26 -57 -10 -6 10 -48 76 -93 148 -46
72 -83 132 -83 134 0 7 86 63 94 61 4 -2 48 -66 97 -142z m1175 108 c-11 -11
-17 4 -9 23 7 18 8 18 11 1 2 -10 1 -21 -2 -24z m-25 14 c-6 -8 -8 -17 -4 -20
3 -4 1 -7 -5 -7 -15 0 -25 18 -17 30 3 6 13 10 22 10 12 0 13 -3 4 -13z m-922
-47 c34 -55 36 -60 21 -60 -6 0 -28 -11 -50 -25 -22 -14 -42 -25 -44 -25 -5 0
-56 86 -56 94 0 6 82 65 92 66 3 0 20 -23 37 -50z m-8070 -36 c12 -11 10 -20
-13 -58 -15 -25 -29 -46 -32 -46 -2 0 -27 13 -54 28 l-48 28 30 52 30 52 36
-21 c21 -12 43 -28 51 -35z m3678 -4 c17 -20 30 -20 788 -20 758 0 771 0 788
20 9 11 23 20 31 20 18 0 46 -27 46 -45 0 -18 -28 -45 -46 -45 -8 0 -22 9 -31
20 -17 20 -30 20 -788 20 -758 0 -771 0 -788 -20 -9 -11 -23 -20 -31 -20 -18
0 -46 27 -46 45 0 18 28 45 46 45 8 0 22 -9 31 -20z m-2020 -40 c17 -20 31
-20 848 -22 l830 -3 -829 -2 c-814 -3 -830 -3 -848 -23 -10 -11 -25 -20 -33
-20 -17 0 -45 27 -45 45 0 18 28 45 46 45 8 0 22 -9 31 -20z m3657 -96 c9 -8
16 -22 16 -29 0 -18 -28 -45 -45 -45 -8 0 -23 9 -33 20 -18 20 -34 20 -828 23
l-809 2 810 3 c797 2 811 2 828 22 20 24 40 25 61 4z m-2560 -20 c9 -8 16 -22
16 -29 0 -18 -28 -45 -46 -45 -8 0 -22 9 -31 20 -17 20 -30 20 -594 20 -537 0
-577 1 -590 18 -11 14 -11 15 1 5 11 -10 143 -13 590 -13 563 0 576 0 593 20
20 24 40 25 61 4z m113 -4 c16 -19 31 -20 233 -22 l215 -3 -214 -2 c-199 -3
-216 -5 -233 -23 -10 -11 -25 -20 -33 -20 -17 0 -45 27 -45 45 0 18 28 45 46
45 8 0 22 -9 31 -20z m5634 -1 c-13 -11 -26 -17 -29 -14 -8 8 20 35 37 35 12
-1 11 -5 -8 -21z m-9071 -14 c0 -8 -2 -15 -4 -15 -2 0 -6 7 -10 15 -3 8 -1 15
4 15 6 0 10 -7 10 -15z m71 -17 c24 -12 47 -21 52 -20 4 1 7 -2 7 -8 0 -5 9
-10 20 -10 22 0 27 -15 8 -26 -6 -4 -14 -2 -16 4 -2 7 -8 10 -13 6 -5 -3 -9 0
-9 6 0 7 -7 10 -15 6 -8 -3 -15 -1 -15 4 0 6 -7 10 -15 10 -8 0 -15 5 -15 12
0 6 -3 8 -6 5 -9 -8 -44 11 -44 23 0 15 12 12 61 -12z m8959 10 c0 -7 -12 -14
-27 -15 -15 0 -33 -9 -41 -20 -14 -17 -14 -17 -8 0 3 10 6 23 6 28 0 6 3 8 8
6 4 -3 16 -1 27 4 29 11 35 11 35 -3z m-5021 -98 c51 -41 97 -74 102 -72 5 1
8 -366 7 -865 l-3 -868 -5 857 -5 856 -95 77 c-52 42 -102 84 -110 92 -29 30
13 0 109 -77z m4931 55 c0 -8 -3 -15 -7 -16 -33 -3 -59 -11 -61 -19 -2 -6 -8
-8 -13 -4 -5 3 -12 -2 -15 -10 -6 -16 -24 -12 -24 5 0 6 4 8 9 5 5 -3 12 1 15
10 4 9 9 14 12 11 4 -3 13 1 21 9 8 8 18 12 23 9 5 -3 11 -1 15 5 9 15 25 12
25 -5z m-5130 -20 c7 -9 21 -13 35 -9 24 6 55 -17 55 -41 0 -18 -27 -45 -45
-45 -23 0 -47 31 -41 53 11 42 -7 47 -178 47 l-162 0 -62 -63 -62 -62 -3
-1135 -2 -1135 -3 1136 -2 1137 68 66 67 66 161 0 c131 0 164 -3 174 -15z
m-3538 -46 c4 -2 13 4 21 15 13 18 15 17 64 -8 42 -21 50 -29 46 -46 -4 -16 1
-21 26 -26 17 -4 31 -10 31 -15 0 -22 41 -7 55 21 l15 30 50 -28 c35 -19 48
-31 44 -42 -10 -23 -10 -45 0 -47 5 0 13 -8 18 -17 5 -9 13 -14 19 -11 5 4 9
2 9 -3 0 -6 11 -13 25 -16 15 -4 25 -13 25 -24 0 -10 -3 -13 -8 -6 -7 11 -60
29 -74 26 -5 -1 -8 2 -8 7 0 5 -9 11 -21 14 -18 5 -28 -8 -75 -109 -30 -63
-56 -114 -59 -114 -5 0 -99 40 -103 44 -1 2 22 56 53 121 42 90 52 120 43 127
-13 8 -27 11 -40 9 -5 0 -8 3 -8 8 0 5 -9 11 -19 14 -13 3 -22 -3 -30 -20 -6
-14 -15 -23 -19 -21 -4 2 -29 12 -55 22 -37 15 -46 23 -41 35 15 37 16 51 3
51 -8 0 -27 7 -43 15 -15 8 -32 12 -37 9 -10 -6 -12 19 -3 29 5 5 34 -8 96
-44z m3052 25 c21 -21 20 -41 -4 -61 -20 -17 -20 -30 -20 -1753 0 -1723 0
-1736 20 -1753 11 -9 20 -23 20 -31 0 -18 -27 -46 -45 -46 -18 0 -45 28 -45
46 0 8 9 22 20 31 20 17 20 30 20 1753 0 1723 0 1736 -20 1753 -11 9 -20 23
-20 31 0 18 27 46 45 46 7 0 21 -7 29 -16z m320 0 c9 -8 16 -22 16 -29 0 -7
-7 -21 -16 -29 -8 -9 -22 -16 -29 -16 -7 0 -21 7 -29 16 -9 8 -16 22 -16 29 0
7 7 21 16 29 8 9 22 16 29 16 7 0 21 -7 29 -16z m110 0 c9 -8 16 -22 16 -29 0
-7 -7 -21 -16 -29 -8 -9 -22 -16 -29 -16 -7 0 -21 7 -29 16 -9 8 -16 22 -16
29 0 7 7 21 16 29 8 9 22 16 29 16 7 0 21 -7 29 -16z m-254 3 c0 -1 -28 -29
-62 -62 l-63 -60 60 63 c55 58 65 67 65 59z m20 -30 c0 -1 -28 -29 -62 -62
l-63 -60 60 63 c55 58 65 67 65 59z m30 -30 c0 -1 -28 -29 -62 -62 l-63 -60
60 63 c55 58 65 67 65 59z m659 -3497 c14 0 41 -30 41 -45 0 -18 -27 -45 -45
-45 -18 0 -45 27 -45 45 0 7 7 20 15 29 13 13 15 225 17 1768 l3 1753 2 -1752
c2 -1067 7 -1753 12 -1753z m-281 3468 c-7 -5 -22 -13 -33 -19 l-20 -10 20 16
c11 9 19 20 18 25 -2 5 4 7 13 3 13 -5 13 -7 2 -15z m4777 12 c3 -5 1 -10 -4
-10 -6 0 -11 5 -11 10 0 6 2 10 4 10 3 0 8 -4 11 -10z m-25 -9 c0 -10 -24 -21
-43 -21 -7 0 -3 7 7 15 22 17 36 19 36 6z m-55 -41 c-4 -6 -11 -8 -16 -5 -5 4
-9 2 -9 -3 0 -5 -18 -12 -40 -16 -22 -3 -40 -11 -40 -16 0 -6 -7 -10 -15 -10
-8 0 -15 -3 -15 -8 0 -4 -9 -13 -20 -20 -18 -11 -20 -10 -20 9 0 11 4 18 8 15
5 -3 20 5 33 17 13 12 26 21 29 19 3 -1 12 4 21 12 12 10 20 11 28 3 8 -8 11
-6 11 6 0 10 5 14 15 11 10 -4 15 0 15 12 1 18 1 18 11 1 5 -9 7 -22 4 -27z
m-4931 4 c21 -21 20 -41 -4 -61 -19 -17 -20 -30 -20 -480 0 -297 4 -464 10
-468 6 -3 10 -17 10 -31 0 -21 4 -24 40 -24 38 0 40 2 40 30 0 17 5 30 10 30
7 0 10 161 10 463 0 450 -1 463 -20 480 -11 9 -20 23 -20 31 0 18 27 46 45 46
18 0 45 -28 45 -46 0 -8 -9 -22 -20 -31 -19 -17 -20 -30 -20 -473 0 -250 3
-472 6 -492 6 -34 10 -38 35 -38 22 0 29 -5 29 -20 0 -19 2 -20 29 -5 19 9 32
11 36 5 3 -6 18 -11 33 -11 24 -2 24 -2 5 -6 -13 -2 -23 -8 -23 -12 0 -4 -18
-16 -40 -26 l-40 -18 0 -133 0 -132 83 -10 c65 -7 72 -9 35 -11 -27 0 -48 -5
-48 -11 0 -5 -16 -10 -35 -10 l-35 0 0 -159 0 -158 53 -7 c98 -11 141 -8 160
14 9 11 23 20 31 20 18 0 46 -27 46 -45 0 -18 -28 -45 -46 -45 -8 0 -22 9 -31
20 -14 16 -30 20 -80 20 -35 0 -63 -4 -63 -10 0 -5 -16 -10 -35 -10 l-35 0 0
-168 0 -168 40 -23 c35 -19 38 -24 28 -41 -11 -17 -14 -17 -40 -4 -25 13 -28
13 -28 -1 0 -8 -9 -15 -20 -15 -16 0 -20 -7 -20 -35 0 -19 -4 -35 -10 -35 -6
0 -11 -162 -12 -462 l-2 -463 -6 495 c-4 272 -7 496 -8 498 -1 1 -24 2 -52 2
l-50 0 0 -35 c0 -19 -4 -35 -10 -35 -6 0 -11 -162 -12 -462 l-2 -463 -6 495
c-4 272 -7 496 -8 498 -1 1 -18 2 -37 2 -29 0 -35 4 -35 21 l0 20 -28 -20 -28
-20 -13 21 c-7 11 -11 21 -9 22 2 1 20 14 41 29 l37 28 0 160 0 159 -40 0
c-25 0 -40 5 -40 12 0 7 -22 -10 -50 -37 -42 -41 -50 -55 -50 -85 l0 -35 43
46 c23 26 48 54 55 63 16 20 36 20 56 0 20 -20 20 -38 0 -58 -20 -20 -38 -20
-59 0 -15 16 -19 14 -56 -22 -34 -33 -39 -44 -39 -84 l0 -45 56 58 c60 61 73
66 98 41 20 -20 20 -38 0 -58 -21 -21 -41 -20 -61 4 -17 20 -18 19 -60 -22
l-43 -42 0 95 0 96 59 56 c50 48 65 57 95 57 l36 0 0 160 0 160 -40 0 c-22 0
-40 5 -40 10 0 18 -45 11 -63 -10 -20 -24 -40 -25 -61 -4 -20 20 -20 38 0 58
21 22 39 20 62 -5 17 -18 27 -19 81 -13 l61 7 0 137 0 138 -36 22 c-33 21 -34
23 -18 41 14 15 20 17 32 6 12 -9 16 -9 19 1 3 6 19 12 37 12 32 0 34 2 40 46
3 26 6 248 6 493 0 434 -1 447 -20 464 -11 9 -20 23 -20 31 0 18 27 46 45 46
7 0 21 -7 29 -16z m1470 0 c32 -32 12 -69 -38 -69 -31 0 -62 -24 -300 -235
l-265 -235 0 -1110 -1 -1110 293 -331 c246 -280 295 -330 310 -322 37 19 74
-13 62 -52 -13 -42 -73 -34 -81 10 -4 18 -110 146 -300 361 l-294 332 0 1112
0 1112 272 242 c213 190 272 248 273 267 1 41 41 57 69 28z m-1577 -31 c-3
-10 -5 -4 -5 12 0 17 2 24 5 18 2 -7 2 -21 0 -30z m331 -128 l47 -49 -51 44
-52 45 1 65 1 65 3 -60 c4 -56 7 -64 51 -110z m2969 105 c63 -50 81 -60 104
-55 28 6 59 -15 59 -40 0 -18 -27 -45 -45 -45 -20 0 -45 28 -45 50 0 11 -30
42 -77 79 l-78 61 -726 0 -726 0 -306 -272 -306 -273 -1 -960 c0 -948 0 -961
20 -978 11 -9 20 -23 20 -31 0 -18 -27 -46 -45 -46 -18 0 -45 28 -45 46 0 8 9
22 20 31 20 17 20 30 20 978 l0 960 312 278 312 277 728 0 729 0 76 -60z
m-3257 -104 c0 -30 -1 -29 -73 42 -70 70 -73 72 -92 55 -19 -18 -19 -18 0 5
l19 23 68 -68 c90 -89 95 -56 6 37 l-63 65 68 -65 c53 -51 67 -70 67 -94z
m330 9 l50 -49 0 -101 0 -101 -42 -39 -43 -40 38 40 37 41 0 100 0 100 -50 49
c-45 44 -50 53 -48 90 l1 40 4 -41 c3 -33 13 -50 53 -89z m41 9 l50 -50 -4
-120 -3 -119 -2 121 -2 121 -50 47 c-44 41 -50 51 -48 84 l1 37 4 -35 c3 -25
18 -49 54 -86z m67 107 c11 -6 13 -138 12 -681 0 -371 -3 -676 -5 -679 -3 -2
-5 286 -5 641 0 624 -1 646 -19 641 -20 -5 -51 20 -51 42 0 17 27 45 43 45 7
0 18 -4 25 -9z m4633 -141 c37 -80 68 -152 68 -161 1 -10 -18 -24 -50 -37
l-50 -21 -21 47 c-11 26 -45 97 -73 159 l-53 112 41 25 c23 14 49 24 56 23 8
-1 45 -67 82 -147z m-2257 124 c9 -8 16 -22 16 -29 0 -7 -7 -21 -16 -29 -8 -9
-22 -16 -29 -16 -7 0 -21 7 -29 16 -9 8 -16 22 -16 29 0 7 7 21 16 29 8 9 22
16 29 16 7 0 21 -7 29 -16z m-3010 -40 c21 -21 20 -41 -4 -61 -20 -17 -20 -30
-20 -605 l0 -587 28 -3 c26 -3 26 -4 -5 -9 l-33 -6 0 597 c0 583 0 596 -20
613 -11 9 -20 23 -20 31 0 18 27 46 45 46 7 0 21 -7 29 -16z m196 -389 c-1
-234 -2 -251 -20 -270 -29 -31 -29 -153 0 -178 11 -9 20 -23 20 -31 0 -18 -27
-46 -45 -46 -18 0 -45 28 -45 46 0 8 9 22 20 31 17 14 20 30 20 89 0 58 4 74
20 89 19 17 20 31 20 269 l0 251 -77 80 -78 80 83 -81 83 -80 -1 -249z m2570
398 c-422 -7 -770 -7 -770 0 0 4 210 6 468 5 257 -1 393 -4 302 -5z m521 0
l-105 -4 119 -119 c66 -66 126 -120 134 -120 8 0 12 -2 9 -5 -3 -3 -264 -5
-579 -5 -564 0 -575 0 -592 -20 -9 -11 -23 -20 -31 -20 -18 0 -46 27 -46 45 0
18 28 45 46 45 8 0 22 -9 31 -20 17 -20 30 -20 578 -20 l560 0 -125 125 -125
125 115 -2 115 -2 -104 -3z m-167 -39 c9 -8 16 -22 16 -29 0 -18 -28 -45 -45
-45 -8 0 -23 9 -33 20 -18 19 -34 20 -503 23 l-484 2 485 3 c472 2 486 3 503
22 20 24 40 25 61 4z m236 1 c7 -8 9 -22 6 -31 -4 -9 -1 -23 6 -32 11 -13 10
-14 -7 -4 -11 6 -28 13 -38 16 -35 11 -29 66 8 66 7 0 18 -7 25 -15z m-6017
-10 c27 -11 37 -12 41 -2 3 6 3 1 0 -12 -5 -17 -3 -21 6 -16 8 5 11 3 9 -4 -5
-15 -7 -15 -59 7 -22 9 -40 23 -40 30 0 15 0 15 43 -3z m4627 12 c0 -2 -15
-16 -32 -33 l-33 -29 29 33 c28 30 36 37 36 29z m1487 -124 c-2 -21 -4 -6 -4
32 0 39 2 55 4 38 2 -18 2 -50 0 -70z m-6034 50 c-5 -11 -8 -12 -13 -2 -5 7
-6 19 -3 26 5 11 8 12 13 2 5 -7 6 -19 3 -26z m27 -7 c-14 -14 -22 -2 -14 18
5 14 9 15 15 4 4 -7 4 -17 -1 -22z m2634 18 c21 -21 20 -39 -4 -62 -18 -17
-20 -34 -23 -263 l-2 -244 -3 245 c-2 232 -3 247 -22 263 -11 9 -20 23 -20 31
0 18 27 46 45 46 7 0 21 -7 29 -16z m5456 -30 c11 -26 20 -51 20 -56 0 -8 -82
-48 -100 -48 -8 0 -50 84 -50 99 0 6 86 48 102 50 4 1 16 -20 28 -45z m-8030
1 c32 -10 51 -25 44 -36 -3 -5 -15 -2 -28 6 -12 8 -26 12 -29 8 -4 -3 -7 -1
-7 5 0 7 -7 12 -15 12 -16 0 -20 12 -8 23 4 4 9 3 12 -2 3 -4 17 -12 31 -16z
m2974 9 c9 -8 16 -22 16 -29 0 -7 -7 -21 -16 -29 -8 -9 -22 -16 -29 -16 -7 0
-21 7 -29 16 -9 8 -16 22 -16 29 0 7 7 21 16 29 8 9 22 16 29 16 7 0 21 -7 29
-16z m2760 -10 c9 -8 16 -22 16 -29 0 -18 -28 -45 -45 -45 -8 0 -23 9 -33 20
-18 19 -34 20 -518 23 l-499 2 500 3 c487 2 501 3 518 22 20 24 40 25 61 4z
m-6464 -15 l48 -21 -21 -51 c-11 -29 -21 -53 -22 -55 -2 -2 -102 37 -113 43
-6 4 42 105 50 105 5 0 31 -9 58 -21z m5090 18 c0 -2 -15 -16 -32 -33 l-33
-29 29 33 c28 30 36 37 36 29z m-1382 -242 l-58 -61 0 -125 c0 -112 2 -126 20
-142 11 -9 20 -23 20 -31 0 -18 -27 -46 -45 -46 -18 0 -45 28 -45 46 0 8 9 22
20 31 18 16 20 30 20 145 l0 127 55 52 55 52 2 96 2 96 5 -90 6 -90 -57 -60z
m4649 91 c48 -106 163 -408 163 -427 0 -4 -22 -15 -50 -24 -48 -16 -70 -14
-70 5 0 20 -104 289 -155 403 l-53 117 46 25 c26 13 51 23 57 21 5 -1 33 -55
62 -120z m-4973 88 c21 -21 20 -39 -4 -62 -17 -16 -20 -34 -23 -157 l-3 -140
-2 140 c-2 127 -4 142 -22 158 -11 9 -20 23 -20 31 0 18 27 46 45 46 7 0 21
-7 29 -16z m3440 0 c9 -8 16 -22 16 -29 0 -16 -27 -45 -41 -45 -6 0 -9 -25 -8
-61 l3 -60 -98 -85 -98 -84 -967 0 c-954 0 -967 0 -984 -20 -9 -11 -23 -20
-31 -20 -18 0 -46 27 -46 45 0 18 28 45 46 45 8 0 22 -9 31 -20 17 -20 30 -20
983 -20 l965 0 93 81 92 80 0 60 c0 40 -5 65 -15 75 -19 20 -19 39 1 58 8 9
22 16 29 16 7 0 21 -7 29 -16z m-1824 -17 c0 -2 -15 -16 -32 -33 l-33 -29 29
33 c28 30 36 37 36 29z m-1296 -33 c9 -8 16 -22 16 -29 0 -7 -7 -21 -16 -29
-8 -9 -22 -16 -29 -16 -7 0 -21 7 -29 16 -9 8 -16 22 -16 29 0 7 7 21 16 29 8
9 22 16 29 16 7 0 21 -7 29 -16z m1206 -47 c0 -2 -17 -19 -37 -38 l-38 -34 34
38 c33 34 41 42 41 34z m1784 -23 c9 -8 16 -22 16 -29 0 -18 -28 -45 -46 -45
-8 0 -22 9 -31 20 -17 20 -30 20 -627 20 -566 0 -611 -1 -630 -17 -21 -18 -21
-18 -2 5 l19 22 611 0 c599 0 612 0 629 20 20 24 40 25 61 4z m-1214 -74 c20
-20 33 -20 592 -20 314 0 569 -2 566 -5 -3 -3 -260 -5 -572 -5 -511 0 -569 -1
-592 -16 -20 -14 -30 -15 -49 -6 -29 13 -33 46 -7 61 25 15 40 13 62 -9z
m-696 -6 c9 -8 16 -22 16 -29 0 -7 -7 -21 -16 -29 -8 -9 -22 -16 -29 -16 -7 0
-21 7 -29 16 -9 8 -16 22 -16 29 0 7 7 21 16 29 8 9 22 16 29 16 7 0 21 -7 29
-16z m180 0 c9 -8 16 -22 16 -29 0 -7 -7 -21 -16 -29 -8 -9 -22 -16 -29 -16
-7 0 -21 7 -29 16 -9 8 -16 22 -16 29 0 7 7 21 16 29 8 9 22 16 29 16 7 0 21
-7 29 -16z m180 0 c9 -8 16 -22 16 -29 0 -7 -7 -21 -16 -29 -8 -9 -22 -16 -29
-16 -7 0 -21 7 -29 16 -9 8 -16 22 -16 29 0 7 7 21 16 29 8 9 22 16 29 16 7 0
21 -7 29 -16z m-1394 -416 c11 -10 20 -25 20 -33 0 -17 -27 -45 -45 -45 -18 0
-45 28 -45 46 0 8 9 22 20 31 19 16 20 31 22 213 l3 195 2 -194 c3 -179 5
-196 23 -213z m70 -100 c11 -10 20 -25 20 -33 0 -17 -27 -45 -45 -45 -18 0
-45 28 -45 46 0 8 9 22 20 31 19 16 20 31 22 263 l3 245 2 -244 c3 -229 5
-246 23 -263z m1465 462 c-18 -20 -16 -20 631 -23 l649 -2 -652 -3 c-359 -1
-653 1 -653 5 0 8 31 43 38 43 3 0 -3 -9 -13 -20z m3609 -36 c10 -31 16 -57
14 -58 -8 -6 -87 -26 -101 -26 -10 0 -22 19 -32 51 -9 28 -15 52 -14 53 6 5
93 34 105 35 6 1 18 -24 28 -55z m-8974 -18 c0 -4 -33 -101 -35 -104 -4 -5
-115 29 -115 35 0 4 7 30 16 58 l17 53 58 -20 c33 -11 59 -21 59 -22z m4534
18 c21 -21 20 -41 -4 -61 -20 -17 -20 -30 -20 -982 l0 -965 28 -30 27 -31 -32
29 -33 30 0 966 c0 953 0 966 -20 983 -11 9 -20 23 -20 31 0 18 27 46 45 46 7
0 21 -7 29 -16z m4300 -330 c7 -30 6 -31 -41 -44 -26 -7 -52 -13 -56 -14 -5
-1 -28 62 -51 139 -24 77 -48 152 -54 167 -11 26 -10 27 46 46 l57 19 46 -141
c26 -78 50 -155 53 -172z m-5370 240 c9 -8 16 -22 16 -29 0 -7 -7 -21 -16 -29
-8 -9 -22 -16 -29 -16 -7 0 -21 7 -29 16 -9 8 -16 22 -16 29 0 7 7 21 16 29 8
9 22 16 29 16 7 0 21 -7 29 -16z m2110 -20 c9 -8 16 -22 16 -29 0 -18 -28 -45
-47 -45 -8 0 -123 -92 -254 -205 l-239 -205 0 -418 0 -417 333 -402 332 -402
465 -3 465 -3 -466 -3 -466 -2 -337 406 -336 406 0 423 0 423 236 202 c220
190 235 204 229 230 -10 48 36 77 69 44z m-124 -23 c0 -14 -401 -362 -411
-356 -5 4 -8 41 -7 83 l2 77 5 -77 6 -76 198 174 198 174 -147 0 c-126 0 -150
-3 -168 -17 -21 -18 -21 -18 -2 5 18 21 26 22 173 22 84 0 153 -4 153 -9z
m-656 -17 c21 -21 20 -41 -4 -61 -19 -16 -20 -30 -20 -228 0 -115 3 -234 6
-262 l7 -53 37 0 37 0 7 61 c3 34 6 153 6 263 0 189 -1 203 -20 219 -11 9 -20
23 -20 31 0 18 27 46 45 46 18 0 45 -28 45 -46 0 -8 -9 -22 -20 -31 -19 -16
-20 -30 -20 -240 0 -137 4 -224 10 -228 6 -3 10 -22 10 -41 0 -30 3 -34 25
-34 l25 0 0 -300 0 -300 -25 0 c-23 0 -25 -4 -25 -44 0 -42 8 -53 275 -380
152 -185 281 -336 287 -336 6 0 9 -2 6 -6 -3 -3 -150 -5 -327 -4 -198 0 -321
-3 -321 -9 0 -14 -29 -41 -45 -41 -18 0 -45 27 -45 45 0 18 27 45 45 45 7 0
20 -7 29 -15 13 -13 59 -15 322 -13 l307 3 -258 315 c-142 173 -271 329 -286
345 -20 21 -29 41 -29 63 0 31 -2 32 -40 32 l-40 0 0 -43 c0 -42 7 -52 250
-336 138 -161 250 -296 250 -299 0 -10 -24 17 -275 313 -131 154 -244 281
-252 283 -8 2 -13 18 -13 43 0 37 -2 39 -30 39 l-30 0 0 300 0 300 30 0 c28 0
30 2 30 40 0 22 5 40 10 40 6 0 10 81 10 223 0 210 -1 224 -20 240 -11 9 -20
23 -20 31 0 18 27 46 45 46 7 0 21 -7 29 -16z m450 -10 c28 -28 13 -68 -26
-69 -13 -1 -28 -4 -34 -7 -5 -4 -9 10 -9 33 1 55 36 77 69 43z m-184 -49 c-24
-25 -46 -45 -49 -45 -3 0 15 20 39 45 24 25 46 45 49 45 3 0 -15 -20 -39 -45z
m-4741 -26 c23 -7 41 -17 41 -23 0 -6 -18 -74 -40 -151 -22 -76 -52 -199 -67
-273 l-28 -134 -54 6 c-30 4 -57 9 -59 11 -11 10 67 348 118 513 15 49 26 72
35 68 7 -2 31 -10 54 -17z m3055 5 c21 -21 20 -39 -4 -62 -17 -16 -20 -34 -23
-162 l-3 -145 -2 145 c-2 132 -4 147 -22 163 -11 9 -20 23 -20 31 0 18 27 46
45 46 7 0 21 -7 29 -16z m29 -105 c-19 -21 -23 -38 -25 -100 l-2 -74 -3 74
c-4 65 -1 76 18 98 18 18 23 35 22 76 l-1 52 7 -50 c6 -43 3 -53 -16 -76z
m1584 63 c-24 -26 -25 -285 -2 -308 8 -9 15 -22 15 -29 0 -18 -27 -45 -45 -45
-18 0 -45 27 -45 45 0 15 27 45 41 45 5 0 9 59 9 137 0 113 3 140 17 155 9 10
18 18 21 18 3 0 -2 -8 -11 -18z m153 5 c0 -2 -10 -12 -22 -23 l-23 -19 19 23
c18 21 26 27 26 19z m3930 -59 c6 -24 13 -51 16 -60 4 -13 -5 -20 -38 -28 -24
-6 -50 -13 -59 -16 -13 -3 -19 6 -28 40 -17 69 -16 72 42 88 28 9 53 16 54 17
1 0 7 -18 13 -41z m-9215 -19 l43 -11 -14 -50 c-7 -28 -15 -52 -18 -55 -2 -3
-30 1 -60 8 -43 9 -55 16 -52 28 3 9 10 36 16 59 9 33 15 42 27 38 9 -4 35
-11 58 -17z m8848 -259 c25 -112 59 -303 72 -406 l7 -51 -59 -5 c-32 -3 -59
-5 -59 -4 -1 0 -9 53 -18 116 -9 63 -31 183 -48 265 -43 206 -44 196 17 210
35 7 52 8 56 0 4 -5 18 -62 32 -125z m-8653 80 c20 -5 25 -13 24 -36 -1 -33
-52 -305 -58 -312 -2 -2 -30 0 -60 3 l-56 7 6 37 c13 77 55 287 60 304 5 17 9
17 84 -3z m3824 -86 c9 -8 16 -22 16 -29 0 -18 -28 -45 -45 -45 -8 0 -23 10
-34 22 -25 26 -29 18 -34 -72 l-3 -65 -2 70 c-2 65 0 72 29 103 33 36 50 39
73 16z m33 -136 c-2 -29 -3 -6 -3 52 0 58 1 81 3 53 2 -29 2 -77 0 -105z
m-493 96 c9 -8 16 -22 16 -29 0 -7 -7 -21 -16 -29 -8 -9 -22 -16 -29 -16 -7 0
-21 7 -29 16 -9 8 -16 22 -16 29 0 7 7 21 16 29 8 9 22 16 29 16 7 0 21 -7 29
-16z m5740 -52 c5 -29 7 -54 4 -57 -2 -2 -29 -7 -59 -11 l-55 -6 -10 55 -10
56 45 9 c71 15 75 13 85 -46z m-9341 -23 c-2 -13 -5 -39 -9 -58 -5 -32 -7 -33
-42 -27 -20 3 -48 6 -61 6 -21 0 -23 3 -17 38 17 97 10 90 74 77 51 -11 57
-14 55 -36z m4061 -5 c9 -8 16 -22 16 -29 0 -7 -7 -21 -16 -29 -8 -9 -22 -16
-29 -16 -7 0 -21 7 -29 16 -9 8 -16 22 -16 29 0 7 7 21 16 29 8 9 22 16 29 16
7 0 21 -7 29 -16z m-460 -40 c9 -8 16 -22 16 -29 0 -7 -7 -21 -16 -29 -8 -9
-22 -16 -29 -16 -7 0 -21 7 -29 16 -9 8 -16 22 -16 29 0 7 7 21 16 29 8 9 22
16 29 16 7 0 21 -7 29 -16z m449 -61 c-7 -2 -21 -2 -30 0 -10 3 -4 5 12 5 17
0 24 -2 18 -5z m40 -110 c3 -5 -17 -8 -43 -8 -26 0 -46 3 -43 8 2 4 22 7 43 7
21 0 41 -3 43 -7z m-596 -23 c12 -13 30 -20 55 -20 l38 0 0 -73 c0 -72 -1 -73
-40 -112 -22 -21 -40 -45 -40 -51 0 -17 -28 -44 -45 -44 -18 0 -45 27 -45 45
0 18 27 45 45 45 7 0 20 -6 28 -14 12 -13 19 -10 51 23 34 35 36 40 36 104 l0
67 -33 0 c-20 0 -39 -8 -50 -20 -9 -11 -23 -20 -31 -20 -18 0 -46 27 -46 45 0
18 28 45 46 45 8 0 22 -9 31 -20z m490 -18 c-12 -13 -18 -40 -19 -93 l-2 -74
-3 74 c-3 58 0 77 13 92 9 11 19 19 22 19 3 0 -2 -8 -11 -18z m153 -62 c0 -54
-3 -69 -16 -74 -14 -5 -15 -4 -5 8 8 10 12 39 9 80 -1 35 0 62 5 59 4 -2 7
-35 7 -73z m-56 34 c21 -21 20 -41 -4 -61 -11 -10 -20 -30 -20 -46 0 -26 3
-29 25 -25 13 3 22 1 19 -3 -3 -5 -16 -9 -30 -9 -21 0 -24 5 -24 33 0 20 -8
39 -20 50 -11 9 -20 23 -20 31 0 18 27 46 45 46 7 0 21 -7 29 -16z m5315 -85
c1 -25 -2 -27 -56 -32 -32 -2 -59 -4 -60 -3 0 0 -4 26 -8 57 l-7 56 59 9 58 9
7 -35 c4 -19 7 -47 7 -61z m-9444 39 c1 -2 0 -27 -2 -55 l-6 -53 -58 0 -59 0
0 43 c0 80 4 84 67 76 30 -4 56 -9 58 -11z m3539 -14 c9 -8 16 -22 16 -29 0
-7 -7 -21 -16 -29 -8 -9 -22 -16 -29 -16 -7 0 -21 7 -29 16 -9 8 -16 22 -16
29 0 7 7 21 16 29 8 9 22 16 29 16 7 0 21 -7 29 -16z m572 -122 c-21 -2 -42 0
-47 5 -4 4 13 6 39 3 l47 -5 -39 -3z m5120 -194 l7 -178 -62 0 -61 0 0 68 c0
37 -3 117 -7 179 l-6 112 54 3 c30 2 57 1 61 -2 4 -3 10 -85 14 -182z m-5162
96 c21 -21 20 -39 -4 -61 -16 -16 -20 -35 -23 -118 l-3 -100 -2 100 c-2 87 -5
103 -22 118 -11 9 -20 23 -20 31 0 18 27 46 45 46 7 0 21 -7 29 -16z m4966
-29 c0 -8 3 -15 8 -15 7 0 6 -164 -4 -418 l-6 -153 -57 3 -56 3 4 235 c2 129
0 250 -3 268 l-8 32 -84 0 c-68 0 -84 3 -84 15 0 12 16 15 84 15 65 0 85 3 90
15 4 11 21 15 61 15 42 0 55 -3 55 -15z m-4786 -21 c9 -8 16 -22 16 -29 0 -18
-28 -45 -46 -45 -8 0 -22 9 -31 20 -12 13 -30 20 -55 20 l-37 0 -4 -72 -3 -73
-2 78 -2 77 43 0 c30 0 48 6 60 20 20 24 40 25 61 4z m5216 -84 l0 -60 -60 0
-60 0 0 60 0 60 60 0 60 0 0 -60z m-5216 -36 c9 -8 16 -22 16 -29 0 -7 -7 -21
-16 -29 -8 -9 -22 -16 -29 -16 -7 0 -21 7 -29 16 -9 8 -16 22 -16 29 0 7 7 21
16 29 8 9 22 16 29 16 7 0 21 -7 29 -16z m-590 -50 c9 -8 16 -22 16 -29 0 -7
-7 -21 -16 -29 -8 -9 -22 -16 -29 -16 -7 0 -21 7 -29 16 -9 8 -16 22 -16 29 0
7 7 21 16 29 8 9 22 16 29 16 7 0 21 -7 29 -16z m1282 -26 c15 -19 16 -20 2
-9 -17 13 -18 4 -18 -150 l0 -164 56 -65 56 -65 -61 65 -62 65 2 173 c0 94 2
172 3 172 2 0 11 -10 22 -22z m-692 -34 c9 -8 16 -22 16 -29 0 -7 -7 -21 -16
-29 -8 -9 -22 -16 -29 -16 -7 0 -21 7 -29 16 -9 8 -16 22 -16 29 0 7 7 21 16
29 8 9 22 16 29 16 7 0 21 -7 29 -16z m746 -29 c19 -19 32 -35 29 -35 -3 0
-20 16 -39 35 -19 19 -32 35 -29 35 3 0 20 -16 39 -35z m70 -80 c19 -19 32
-35 29 -35 -3 0 -20 16 -39 35 -19 19 -32 35 -29 35 3 0 20 -16 39 -35z m-816
-11 c9 -8 16 -22 16 -29 0 -7 -7 -21 -16 -29 -8 -9 -22 -16 -29 -16 -38 0 -59
61 -27 79 24 15 38 13 56 -5z m-712 -77 l-82 -82 -3 -450 -2 -450 -3 451 -2
451 83 82 c45 44 84 81 87 81 2 0 -32 -37 -78 -83z m-3328 1 c16 -182 23 -283
21 -286 -2 -2 -28 -6 -58 -9 l-54 -6 -6 34 c-3 19 -9 72 -12 119 -3 47 -8 113
-11 148 l-6 62 60 0 60 0 6 -62z m4830 26 c9 -8 16 -20 16 -25 0 -22 -22 -49
-40 -49 -22 0 -50 25 -50 45 0 7 7 21 16 29 8 9 22 16 29 16 7 0 21 -7 29 -16z
m4424 -41 l-3 -58 -54 -3 c-30 -2 -58 1 -62 5 -5 5 -6 32 -2 61 l6 52 59 0 59
0 -3 -57z m-4318 12 c19 -19 32 -35 29 -35 -3 0 -20 16 -39 35 -19 19 -32 35
-29 35 3 0 20 -16 39 -35z m-1466 9 c21 -21 20 -39 -4 -62 -19 -17 -20 -34
-23 -393 l-2 -374 -3 375 c-2 362 -3 376 -22 393 -11 9 -20 23 -20 31 0 18 27
46 45 46 7 0 21 -7 29 -16z m350 0 c21 -21 20 -39 -4 -62 -19 -17 -20 -34 -23
-393 l-2 -374 -3 375 c-2 362 -3 376 -22 393 -11 9 -20 23 -20 31 0 18 27 46
45 46 7 0 21 -7 29 -16z m-4050 -20 c3 -9 6 -33 6 -54 0 -43 -10 -50 -75 -50
-41 0 -43 1 -49 38 -13 81 -13 82 53 82 44 0 60 -4 65 -16z m9245 -30 c5 -4
-16 -260 -26 -319 l-6 -35 -51 6 c-28 4 -54 9 -58 13 -4 3 -1 65 7 136 8 72
15 149 15 173 l0 42 58 -6 c31 -4 59 -8 61 -10z m-4009 -39 c19 -19 32 -35 29
-35 -3 0 -20 16 -39 35 -19 19 -32 35 -29 35 3 0 20 -16 39 -35z m-1013 -592
c-1 -115 -2 -21 -2 207 0 228 1 322 2 208 2 -115 2 -301 0 -415z m868 597 c10
-11 16 -20 13 -20 -3 0 -13 9 -23 20 -10 11 -16 20 -13 20 3 0 13 -9 23 -20z
m-1491 -6 c21 -21 20 -39 -4 -62 -19 -17 -20 -34 -23 -393 l-2 -374 -3 375
c-2 362 -3 376 -22 393 -11 9 -20 23 -20 31 0 18 27 46 45 46 7 0 21 -7 29
-16z m550 0 c21 -21 20 -39 -4 -62 -19 -17 -20 -34 -23 -348 l-2 -329 -3 330
c-2 317 -3 331 -22 348 -11 9 -20 23 -20 31 0 18 27 46 45 46 7 0 21 -7 29
-16z m981 -44 c10 -11 16 -20 13 -20 -3 0 -13 9 -23 20 -10 11 -16 20 -13 20
3 0 13 -9 23 -20z m-4701 -22 c3 -18 12 -95 21 -171 9 -75 25 -183 36 -240 10
-56 19 -109 19 -119 0 -21 -99 -46 -110 -27 -21 34 -96 569 -82 584 3 3 29 5
58 5 52 0 53 -1 58 -32z m4861 2 c10 -11 16 -20 13 -20 -3 0 -13 9 -23 20 -10
11 -16 20 -13 20 3 0 13 -9 23 -20z m-5 -34 c14 -2 -10 -4 -52 -5 -43 0 -78 2
-78 7 0 6 70 6 130 -2z m35 -99 l210 -2 -215 -2 -215 -2 -19 27 -19 27 24 -22
c24 -22 34 -23 234 -26z m4135 -72 c0 -18 -3 -46 -6 -62 -6 -29 -7 -29 -52
-22 -26 4 -53 8 -60 8 -10 1 -12 13 -7 49 4 26 8 52 9 57 2 6 28 9 60 7 56 -4
56 -4 56 -37z m-9426 -26 c3 -17 6 -44 6 -59 0 -26 -3 -28 -56 -35 -31 -4 -57
-5 -59 -3 -1 2 -6 29 -9 60 l-7 57 43 4 c24 2 50 4 59 5 11 1 19 -8 23 -29z
m8994 -4 c6 -5 -47 -295 -74 -405 -47 -197 -40 -183 -81 -175 -19 3 -46 10
-58 15 l-24 9 20 68 c20 72 70 310 89 431 l12 73 57 -7 c31 -3 57 -8 59 -9z
m772 -32 c0 -41 -36 -265 -65 -407 -52 -261 -153 -603 -243 -828 l-39 -96 36
-18 c20 -10 38 -18 41 -19 3 -1 23 -10 45 -20 70 -31 90 -38 98 -37 4 1 7 -3
7 -8 0 -6 6 -10 14 -10 7 0 19 -7 26 -15 10 -12 10 -15 -3 -15 -9 0 -18 4 -22
10 -3 5 -12 7 -19 4 -7 -3 -16 2 -20 11 -3 9 -10 13 -16 10 -5 -3 -10 0 -10 7
0 9 -3 9 -10 -2 -8 -13 -10 -12 -10 3 0 10 -5 15 -10 12 -6 -3 -17 1 -26 9 -8
9 -24 16 -34 16 -10 0 -22 5 -25 10 -4 6 -11 8 -16 5 -5 -4 -12 0 -15 9 -13
34 -41 12 -69 -54 -45 -104 -192 -396 -258 -510 -186 -326 -465 -700 -714
-961 l-73 -76 25 -29 c14 -16 25 -33 25 -37 0 -5 5 -5 10 -2 6 3 10 2 10 -3 0
-5 32 -41 70 -81 71 -72 79 -84 58 -97 -6 -4 -8 -3 -5 3 3 5 -10 24 -28 42
-19 18 -35 37 -35 42 0 6 -4 7 -10 4 -5 -3 -10 1 -10 10 0 9 -4 13 -10 10 -5
-3 -10 -1 -10 4 0 10 -98 111 -108 111 -2 0 -49 -44 -105 -98 -246 -235 -704
-591 -723 -561 -8 13 -13 9 116 99 965 677 1676 1687 1991 2830 46 166 112
490 129 630 7 52 13 101 16 108 7 23 24 12 24 -15z m-4359 -43 l466 0 24 -27
24 -28 -26 23 -26 22 -463 0 -464 -1 -25 28 -26 27 26 -22 25 -22 465 0z
m1509 -45 c19 -19 32 -35 29 -35 -3 0 -20 16 -39 35 -19 19 -32 35 -29 35 3 0
20 -16 39 -35z m-1933 -25 c17 -19 30 -20 403 -20 373 0 386 1 403 20 9 11 23
20 31 20 18 0 46 -27 46 -45 0 -18 -28 -45 -46 -45 -8 0 -22 9 -31 20 -17 19
-30 20 -403 20 -373 0 -386 -1 -403 -20 -9 -11 -23 -20 -31 -20 -18 0 -46 27
-46 45 0 18 28 45 46 45 8 0 22 -9 31 -20z m1140 0 c17 -19 30 -20 338 -20
308 0 321 1 338 20 9 11 23 20 31 20 18 0 46 -27 46 -45 0 -18 -28 -45 -46
-45 -8 0 -22 9 -31 20 -17 19 -30 20 -338 20 -308 0 -321 -1 -338 -20 -9 -11
-23 -20 -31 -20 -18 0 -46 27 -46 45 0 18 28 45 46 45 8 0 22 -9 31 -20z
m-5862 -22 c17 -79 58 -286 59 -302 1 -15 -10 -22 -49 -32 -27 -7 -53 -10 -56
-6 -12 13 -73 309 -71 339 1 5 16 11 34 14 64 12 77 10 83 -13z m5805 -115 c0
-8 -9 0 -50 45 l-45 47 48 -45 c26 -24 47 -45 47 -47z m-973 27 c17 -19 30
-20 418 -20 388 0 401 1 418 20 9 11 23 20 31 20 18 0 46 -27 46 -45 0 -18
-28 -45 -46 -45 -8 0 -22 9 -31 20 -17 19 -30 20 -418 20 -388 0 -401 -1 -418
-20 -9 -11 -23 -20 -31 -20 -18 0 -46 27 -46 45 0 18 28 45 46 45 8 0 22 -9
31 -20z m1120 0 c17 -19 30 -20 338 -20 308 0 321 1 338 20 9 11 23 20 31 20
18 0 46 -27 46 -45 0 -18 -28 -45 -46 -45 -8 0 -22 9 -31 20 -17 19 -30 20
-338 20 -308 0 -321 -1 -338 -20 -9 -11 -23 -20 -31 -20 -18 0 -46 27 -46 45
0 18 28 45 46 45 8 0 22 -9 31 -20z m2882 9 c45 -9 50 -13 46 -32 -2 -12 -16
-74 -30 -137 -32 -148 -44 -190 -54 -190 -4 0 -30 7 -58 15 l-50 15 28 112
c15 62 33 139 39 171 6 31 15 57 20 57 5 0 32 -5 59 -11z m-7369 -11 c-14 -6
-42 -19 -63 -28 -20 -10 -39 -14 -42 -10 -3 5 21 17 52 28 62 22 94 28 53 10z
m5371 -202 c-1 -89 2 -146 8 -146 14 0 41 -29 41 -45 0 -18 -27 -45 -45 -45
-18 0 -45 27 -45 45 0 7 7 20 15 28 11 11 14 48 16 162 l1 147 -33 36 -34 37
39 -36 38 -36 -1 -147z m877 190 c28 -10 50 -21 47 -26 -4 -7 -20 -1 -105 39
-30 14 -14 10 58 -13z m1356 -22 c51 -7 51 -9 36 -82 l-11 -48 -60 14 c-46 12
-58 18 -55 31 3 9 8 33 12 54 7 40 8 40 78 31z m-9740 -101 c27 -147 98 -420
151 -583 102 -312 235 -624 235 -550 0 6 7 10 15 10 8 0 15 4 15 10 0 5 3 9 8
9 16 -3 32 1 31 9 -3 20 3 23 18 11 13 -11 15 -11 9 -1 -5 9 -3 12 5 11 18 -4
89 30 89 42 0 5 3 8 8 7 4 -2 22 3 40 11 21 9 32 21 33 35 0 11 3 16 5 9 4 -9
21 -5 60 12 30 13 54 21 54 17 0 -4 7 2 15 12 14 19 15 19 15 1 0 -16 2 -16
19 3 10 12 21 19 25 15 3 -3 6 -1 6 5 0 7 7 12 15 12 8 0 15 5 15 11 0 6 7 9
15 5 8 -3 15 0 15 6 0 6 3 8 6 5 4 -3 18 3 32 14 16 12 29 16 35 10 13 -13 -1
-31 -18 -24 -8 3 -15 0 -15 -6 0 -6 -8 -11 -18 -11 -10 0 -27 -7 -38 -15 -12
-8 -24 -11 -28 -8 -3 3 -6 2 -6 -4 0 -10 -49 -38 -63 -35 -16 4 -18 -27 -3
-57 25 -48 29 -44 -80 -88 -6 -2 -19 14 -29 37 -18 41 -44 54 -46 23 0 -12 -2
-13 -6 -5 -4 10 -8 9 -17 -4 -7 -9 -24 -18 -38 -19 -25 -3 -68 -23 -79 -38 -3
-4 -16 -10 -30 -12 -13 -3 -28 -11 -34 -18 -5 -7 -18 -11 -28 -9 -11 2 -16 -2
-15 -10 2 -7 -3 -12 -9 -11 -7 2 -13 0 -13 -3 0 -3 36 -76 80 -163 175 -346
389 -670 653 -986 119 -143 509 -535 531 -535 21 0 53 33 48 48 -2 7 2 11 10
10 7 -2 12 3 10 10 -1 6 5 12 13 12 8 0 15 5 15 11 0 5 4 8 8 5 5 -3 26 20 48
49 21 30 43 55 47 55 5 0 5 5 1 12 -4 7 -3 8 4 4 7 -4 12 -2 12 4 0 12 24 40
34 40 12 0 5 -16 -19 -44 -14 -16 -25 -35 -25 -43 0 -8 -4 -11 -10 -8 -5 3
-10 -1 -10 -9 0 -9 -4 -16 -10 -16 -5 0 -10 -7 -10 -17 0 -9 -3 -13 -6 -10 -4
3 -15 -5 -26 -18 -11 -14 -24 -23 -29 -20 -5 4 -9 2 -9 -3 0 -5 -11 -22 -25
-38 -14 -16 -25 -32 -25 -36 0 -5 -7 -8 -16 -8 -14 0 -15 -2 -3 -16 19 -24
195 -167 317 -259 69 -51 100 -81 94 -87 -11 -11 -177 109 -337 242 -83 70
-130 95 -118 65 2 -7 0 -16 -5 -19 -16 -9 -22 21 -7 34 10 9 -33 57 -209 233
-299 298 -481 519 -690 839 -116 178 -193 312 -286 498 -40 80 -74 147 -76
149 -5 6 -66 -20 -85 -36 -9 -7 -18 -10 -21 -7 -4 3 -16 -4 -27 -15 -25 -25
-51 -27 -51 -6 0 10 7 15 18 13 9 -2 16 2 15 8 -1 6 3 11 10 12 26 2 43 9 69
26 15 10 31 15 36 12 19 -12 19 33 0 76 -123 269 -247 650 -317 968 -42 194
-46 220 -29 220 10 0 20 -29 32 -97z m460 69 c3 -5 8 -31 11 -58 l7 -50 -52
-12 c-29 -7 -56 -10 -59 -6 -3 3 -11 29 -16 57 l-11 52 51 11 c66 15 63 15 69
6z m1762 -72 c2 0 13 6 24 12 34 22 85 -25 64 -59 -19 -30 -42 -39 -64 -25
-18 11 -20 10 -21 -10 -1 -13 -5 -5 -8 16 l-6 40 -26 -39 -25 -39 105 -228
c73 -158 110 -227 119 -223 17 6 8 -8 -41 -67 -36 -43 -38 -49 -33 -95 l5 -48
-10 40 c-5 22 -8 52 -5 67 4 20 -24 102 -100 294 -57 147 -103 268 -101 271 2
2 35 -74 72 -169 37 -95 84 -214 104 -264 20 -51 40 -93 46 -95 5 -1 17 9 27
22 19 25 18 25 -87 253 -58 126 -108 232 -110 236 -3 4 9 26 25 49 23 32 30
53 32 93 1 51 2 51 5 11 2 -24 6 -43 9 -43z m6052 -59 c17 -24 30 -47 27 -51
-16 -26 -215 -465 -215 -475 0 -6 11 -21 23 -34 l24 -22 46 118 c122 315 170
433 174 430 3 -3 -129 -345 -215 -556 -3 -9 -1 -12 6 -7 14 8 14 -32 1 -79 -7
-24 -7 -22 -3 14 4 40 1 47 -38 95 -24 28 -50 60 -58 71 -14 20 -14 20 8 1
l22 -19 29 64 c16 35 65 141 108 234 l79 171 -24 37 c-27 40 -40 36 -43 -13
-1 -15 -3 -19 -6 -9 -3 11 -11 15 -24 12 -22 -6 -59 22 -59 45 0 21 30 52 50
52 9 0 21 -5 28 -12 9 -9 12 -2 13 33 l2 44 6 -50 c4 -33 17 -65 39 -94z
m-6299 115 c-2 -3 -33 -15 -68 -29 -60 -22 -66 -27 -79 -66 -8 -23 -16 -40
-18 -38 -2 2 3 24 11 48 14 41 20 46 73 65 54 20 90 29 81 20z m173 -13 c22
-20 23 -41 1 -65 -20 -22 -41 -23 -65 -1 -22 20 -23 41 -1 65 20 22 41 23 65
1z m6220 0 c22 -20 23 -41 1 -65 -20 -22 -41 -23 -65 -1 -22 20 -23 41 -1 65
20 22 41 23 65 1z m200 -7 c54 -18 58 -22 73 -64 8 -25 13 -47 11 -49 -2 -2
-10 15 -18 38 -13 39 -19 44 -79 66 -104 40 -96 45 13 9z m-6176 -116 c-2 -8
-4 -5 -5 8 -1 32 -15 27 -36 -12 l-19 -34 107 -233 c59 -127 106 -234 104
-236 -5 -4 -217 455 -217 469 0 5 11 29 25 52 18 31 24 52 20 77 -2 19 2 9 10
-21 8 -30 13 -62 11 -70z m3231 100 c17 -19 30 -20 482 -20 l464 0 -19 23
c-16 19 -15 18 9 -3 l29 -25 -473 -3 c-457 -2 -473 -3 -491 -22 -10 -11 -25
-20 -33 -20 -17 0 -45 27 -45 45 0 18 28 45 46 45 8 0 22 -9 31 -20z m1090 0
c17 -19 31 -20 338 -22 l320 -3 -319 -2 c-304 -3 -321 -4 -338 -23 -10 -11
-25 -20 -33 -20 -17 0 -45 27 -45 45 0 18 28 45 46 45 8 0 22 -9 31 -20z m737
4 c9 -8 16 -22 16 -29 0 -7 -7 -21 -16 -29 -8 -9 -22 -16 -29 -16 -7 0 -21 7
-29 16 -9 8 -16 22 -16 29 0 7 7 21 16 29 8 9 22 16 29 16 7 0 21 -7 29 -16z
m641 -24 c-5 -31 -2 -47 14 -74 12 -18 21 -38 21 -44 0 -14 -212 -473 -217
-469 -2 2 45 109 104 236 l107 233 -19 35 c-19 35 -20 35 -26 12 -11 -40 -10
-6 2 54 13 65 24 78 14 17z m-6025 -123 c12 -60 20 -111 17 -113 -4 -4 -47
198 -47 220 0 27 10 -10 30 -107z m6329 -6 c-12 -61 -24 -110 -26 -107 -2 2 6
54 18 115 12 61 24 110 26 107 2 -2 -6 -54 -18 -115z m-6427 82 c10 -9 18 -23
18 -31 0 -19 -29 -52 -46 -52 -7 0 -15 -10 -17 -22 -4 -21 -4 -20 -6 3 0 15
-8 32 -16 39 -20 16 -19 39 2 62 20 22 41 23 65 1z m6580 0 c22 -20 23 -46 3
-63 -8 -7 -16 -24 -16 -39 -2 -23 -2 -24 -6 -3 -2 12 -9 22 -15 22 -17 0 -48
31 -48 48 0 21 29 52 48 52 9 0 24 -7 34 -17z m-4468 -19 c9 -8 16 -22 16 -29
0 -7 -7 -21 -16 -29 -8 -9 -22 -16 -29 -16 -7 0 -21 7 -29 16 -9 8 -16 22 -16
29 0 7 7 21 16 29 8 9 22 16 29 16 7 0 21 -7 29 -16z m350 0 c9 -8 16 -22 16
-29 0 -7 -7 -21 -16 -29 -8 -9 -22 -16 -29 -16 -7 0 -21 7 -29 16 -9 8 -16 22
-16 29 0 7 7 21 16 29 8 9 22 16 29 16 7 0 21 -7 29 -16z m100 0 c9 -8 16 -22
16 -29 0 -7 -7 -21 -16 -29 -8 -9 -22 -16 -29 -16 -7 0 -21 7 -29 16 -9 8 -16
22 -16 29 0 7 7 21 16 29 8 9 22 16 29 16 7 0 21 -7 29 -16z m1640 0 c9 -8 16
-22 16 -29 0 -7 -7 -21 -16 -29 -8 -9 -22 -16 -29 -16 -7 0 -21 7 -29 16 -9 8
-16 22 -16 29 0 7 7 21 16 29 8 9 22 16 29 16 7 0 21 -7 29 -16z m153 -4 c17
-19 31 -20 518 -22 l500 -3 -499 -2 c-484 -3 -500 -4 -518 -23 -10 -11 -25
-20 -33 -20 -17 0 -45 27 -45 45 0 18 28 45 46 45 8 0 22 -9 31 -20z m1127 -6
c9 -8 16 -22 16 -29 0 -7 -7 -21 -16 -29 -8 -9 -22 -16 -29 -16 -7 0 -21 7
-29 16 -9 8 -16 22 -16 29 0 7 7 21 16 29 8 9 22 16 29 16 7 0 21 -7 29 -16z
m-1717 -14 c15 -18 31 -20 133 -22 l115 -2 -115 -3 c-98 -3 -117 -6 -132 -23
-11 -11 -25 -20 -33 -20 -17 0 -45 27 -45 45 0 18 28 45 46 45 8 0 22 -9 31
-20z m-3930 -37 c-3 -10 -5 -4 -5 12 0 17 2 24 5 18 2 -7 2 -21 0 -30z m6850
0 c-3 -10 -5 -4 -5 12 0 17 2 24 5 18 2 -7 2 -21 0 -30z m-4142 -73 l-90 -90
-160 0 c-148 0 -162 -2 -178 -20 -9 -11 -23 -20 -31 -20 -18 0 -46 27 -46 45
0 18 28 45 46 45 8 0 22 -9 31 -20 16 -18 30 -20 178 -20 l160 0 85 85 c47 47
87 85 90 85 2 0 -36 -40 -85 -90z m1495 76 c0 -2 -38 -30 -85 -62 -47 -32 -85
-61 -85 -65 0 -13 -31 -39 -45 -39 -7 0 -21 7 -29 16 -9 8 -16 22 -16 29 0 7
7 21 16 29 20 20 38 20 58 0 15 -14 23 -11 98 40 82 56 88 60 88 52z m417 -16
c17 -19 31 -20 278 -22 l260 -3 -259 -2 c-244 -3 -261 -5 -278 -23 -10 -11
-25 -20 -33 -20 -17 0 -45 27 -45 45 0 18 28 45 46 45 8 0 22 -9 31 -20z m617
4 c9 -8 16 -22 16 -29 0 -7 -7 -21 -16 -29 -8 -9 -22 -16 -29 -16 -7 0 -21 7
-29 16 -9 8 -16 22 -16 29 0 7 7 21 16 29 8 9 22 16 29 16 7 0 21 -7 29 -16z
m-5025 -53 c-18 -28 -34 -49 -36 -47 -2 2 10 27 28 55 17 29 33 50 36 48 2 -3
-11 -28 -28 -56z m6431 8 c17 -28 29 -53 27 -55 -4 -4 -67 92 -67 102 0 12 11
-1 40 -47z m-4466 25 c9 -8 16 -22 16 -29 0 -7 -7 -21 -16 -29 -8 -9 -22 -16
-29 -16 -7 0 -21 7 -29 16 -9 8 -16 22 -16 29 0 7 7 21 16 29 8 9 22 16 29 16
7 0 21 -7 29 -16z m220 0 c9 -8 16 -22 16 -29 0 -7 -7 -21 -16 -29 -8 -9 -22
-16 -29 -16 -7 0 -21 7 -29 16 -9 8 -16 22 -16 29 0 7 7 21 16 29 8 9 22 16
29 16 7 0 21 -7 29 -16z m140 0 c9 -8 16 -22 16 -29 0 -7 -7 -21 -16 -29 -8
-9 -22 -16 -29 -16 -7 0 -21 7 -29 16 -9 8 -16 22 -16 29 0 7 7 21 16 29 8 9
22 16 29 16 7 0 21 -7 29 -16z m320 0 c9 -8 16 -22 16 -29 0 -23 -31 -47 -54
-41 -16 4 -36 -9 -81 -52 l-60 -57 57 60 c43 45 56 65 52 81 -6 23 18 54 41
54 7 0 21 -7 29 -16z m1580 0 c34 -33 3 -79 -46 -69 -17 4 -35 2 -44 -6 -8 -6
-17 -9 -20 -6 -3 3 4 10 15 17 12 6 21 19 21 30 0 22 25 50 45 50 7 0 21 -7
29 -16z m-5284 -9 c0 -22 103 -326 149 -437 l39 -97 -51 -24 c-29 -14 -55 -22
-58 -18 -21 20 -185 480 -191 537 -3 23 2 28 37 39 55 18 75 18 75 0z m857
-22 c-3 -10 -5 -4 -5 12 0 17 2 24 5 18 2 -7 2 -21 0 -30z m6830 0 c-3 -10 -5
-4 -5 12 0 17 2 24 5 18 2 -7 2 -21 0 -30z m-1223 -9 c9 -8 16 -22 16 -29 0
-7 -7 -21 -16 -29 -8 -9 -22 -16 -29 -16 -7 0 -21 7 -29 16 -9 8 -16 22 -16
29 0 7 7 21 16 29 8 9 22 16 29 16 7 0 21 -7 29 -16z m-5507 -41 c-3 -10 -5
-2 -5 17 0 19 2 27 5 18 2 -10 2 -26 0 -35z m6630 0 c-3 -10 -5 -2 -5 17 0 19
2 27 5 18 2 -10 2 -26 0 -35z m-6720 -10 c-3 -10 -5 -4 -5 12 0 17 2 24 5 18
2 -7 2 -21 0 -30z m2118 -43 c44 -44 77 -80 75 -80 -3 0 -41 36 -85 80 -44 44
-77 80 -75 80 3 0 41 -36 85 -80z m3019 64 c9 -8 16 -22 16 -29 0 -18 -28 -45
-46 -45 -8 0 -22 9 -31 20 -17 19 -30 20 -412 20 -217 0 -392 3 -389 6 3 3
181 5 395 4 378 -1 388 0 405 20 21 24 41 26 62 4z m147 6 c10 -6 19 -19 19
-30 0 -22 -25 -50 -45 -50 -7 0 -21 7 -29 16 -9 8 -16 22 -16 29 0 16 27 45
41 45 6 0 19 -5 30 -10z m183 -6 c9 -8 16 -22 16 -29 0 -7 -7 -21 -16 -29 -8
-9 -22 -16 -29 -16 -7 0 -21 7 -29 16 -9 8 -16 22 -16 29 0 7 7 21 16 29 8 9
22 16 29 16 7 0 21 -7 29 -16z m1343 -21 c-3 -10 -5 -4 -5 12 0 17 2 24 5 18
2 -7 2 -21 0 -30z m-8088 -45 c5 -13 12 -37 15 -54 7 -31 5 -32 -40 -48 -26
-9 -53 -16 -59 -16 -14 0 -40 99 -29 110 9 9 69 27 92 29 7 1 16 -9 21 -21z
m2002 -25 c-12 -20 -14 -14 -5 12 4 9 9 14 11 11 3 -2 0 -13 -6 -23z m5369 -8
c0 -5 -5 -3 -10 5 -5 8 -10 20 -10 25 0 6 5 3 10 -5 5 -8 10 -19 10 -25z
m-516 9 c9 -8 16 -22 16 -29 0 -18 -28 -45 -45 -45 -8 0 -23 9 -33 20 -18 19
-34 20 -788 23 l-769 2 770 3 c757 2 771 2 788 22 20 24 40 25 61 4z m-6584
-46 c7 -22 31 -95 56 -161 24 -66 44 -123 44 -127 0 -11 -101 -43 -109 -34
-11 12 -99 260 -107 301 -6 30 -5 32 42 46 27 8 52 15 56 16 4 1 12 -18 18
-41z m1822 15 c22 -20 23 -41 1 -65 -20 -22 -41 -23 -65 -1 -22 20 -23 41 -1
65 20 22 41 23 65 1z m5230 0 c22 -20 23 -41 1 -65 -20 -22 -41 -23 -65 -1
-22 20 -23 41 -1 65 20 22 41 23 65 1z m-5340 -18 c-8 -16 -9 -16 -15 -1 -4
10 -3 15 3 11 6 -3 10 -1 10 6 0 7 3 10 6 6 3 -3 2 -13 -4 -22z m5409 10 c5 4
6 -1 2 -10 -5 -13 -7 -14 -14 -3 -5 7 -8 18 -8 23 0 6 3 4 6 -3 2 -6 9 -10 14
-7z m-5225 -115 c-2 -8 -4 -5 -5 8 -2 34 -17 26 -40 -20 -12 -24 -21 -37 -21
-30 0 7 11 33 25 56 18 31 24 52 20 77 -2 19 2 9 10 -21 8 -30 13 -62 11 -70z
m5059 80 c-5 -31 -2 -47 14 -74 12 -18 21 -40 21 -47 0 -8 -10 6 -22 31 -21
42 -23 43 -29 20 -11 -41 -10 -8 2 53 13 65 24 78 14 17z m-3432 3 c-56 -2
-151 -2 -210 0 -59 1 -13 3 102 3 116 0 164 -2 108 -3z m5017 -44 c38 -12 41
-15 36 -40 -6 -29 -64 -190 -97 -266 -20 -48 -20 -48 -96 -17 l-33 14 16 38
c8 20 36 95 61 165 30 83 51 126 59 123 6 -2 31 -10 54 -17z m-534 -72 c8 3
14 0 14 -7 0 -6 4 -9 9 -5 5 3 12 1 16 -5 4 -6 11 -8 16 -5 5 4 9 1 9 -4 0 -6
7 -11 15 -11 16 0 20 -16 6 -24 -5 -3 -12 1 -15 10 -3 8 -10 13 -15 10 -15
-10 -81 34 -80 52 1 15 2 15 6 0 2 -10 10 -15 19 -11z m-6906 -32 c0 -5 -5 -3
-10 5 -5 8 -10 20 -10 25 0 6 5 3 10 -5 5 -8 10 -19 10 -25z m6631 8 c-12 -20
-14 -14 -5 12 4 9 9 14 11 11 3 -2 0 -13 -6 -23z m-5866 -33 c9 -16 13 -30 11
-30 -3 0 -12 14 -21 30 -9 17 -13 30 -11 30 3 0 12 -13 21 -30z m5100 0 c-9
-16 -18 -30 -21 -30 -2 0 2 14 11 30 9 17 18 30 21 30 2 0 -2 -13 -11 -30z
m-5334 -7 c13 -16 12 -17 -3 -4 -10 7 -18 15 -18 17 0 8 8 3 21 -13z m5579 13
c0 -2 -8 -10 -17 -17 -16 -13 -17 -12 -4 4 13 16 21 21 21 13z m940 -11 c0 4
14 -4 31 -16 26 -18 33 -19 40 -8 10 16 12 8 3 -14 -4 -12 -11 -13 -35 -4 -16
6 -29 15 -29 19 0 4 -7 5 -15 2 -8 -4 -15 -1 -15 5 0 6 -3 10 -7 10 -17 -3
-24 2 -18 11 4 7 13 7 26 0 10 -6 19 -8 19 -5z m-7425 -15 c3 -5 -12 -17 -34
-26 -23 -9 -41 -21 -41 -27 0 -6 -3 -8 -6 -4 -3 3 -22 -3 -41 -14 -19 -11 -38
-17 -42 -15 -4 3 -17 -3 -28 -14 -12 -10 -24 -16 -27 -12 -4 3 -11 0 -16 -8
-5 -7 -16 -15 -26 -16 -45 -7 -64 -16 -64 -29 0 -8 -4 -15 -10 -15 -5 0 -10 6
-10 13 0 8 -3 7 -9 -3 -6 -8 -8 -17 -5 -22 3 -4 -9 -5 -26 -3 -21 2 -33 -1
-37 -11 -3 -7 -9 -11 -14 -8 -5 3 -9 0 -9 -5 0 -6 -4 -11 -10 -11 -5 0 -10 7
-10 15 0 8 7 15 15 15 8 0 15 5 15 12 0 6 3 8 7 5 3 -4 15 0 25 10 14 13 18
13 18 2 1 -10 6 -7 18 7 10 11 23 19 29 17 6 -2 21 5 32 16 11 11 23 16 26 11
4 -6 12 -5 20 2 35 32 45 38 60 38 8 0 15 5 15 11 0 8 5 8 15 -1 11 -9 15 -9
15 -1 0 7 5 9 10 6 6 -3 10 -1 10 5 0 7 6 10 12 8 7 -3 18 5 24 16 6 12 16 20
22 19 7 -2 12 2 12 8 0 8 4 8 14 0 10 -9 15 -8 20 4 6 17 22 20 31 5z m8016
-11 c24 -7 46 -14 48 -15 2 -2 -6 -30 -18 -63 -22 -58 -23 -59 -49 -45 -15 7
-40 18 -56 24 -17 6 -26 15 -23 24 3 8 11 33 18 55 8 26 17 40 25 37 6 -2 32
-10 55 -17z m-7040 -26 c13 -16 12 -17 -3 -4 -17 13 -22 21 -14 21 2 0 10 -8
17 -17z m119 -84 c71 -86 98 -111 201 -180 65 -43 122 -79 126 -79 4 0 -15 24
-42 53 l-50 52 52 -49 c29 -27 51 -53 50 -57 -1 -4 71 -57 160 -117 132 -89
171 -110 208 -114 41 -5 44 -4 33 11 -11 14 -10 14 7 -1 16 -13 118 -28 470
-68 248 -28 456 -54 464 -56 48 -15 -42 -7 -419 36 -642 75 -641 74 -639 84 1
9 -541 372 -551 369 -4 -1 -46 38 -94 86 -62 62 -84 91 -76 96 8 5 11 4 7 -2
-3 -5 32 -47 79 -94 46 -46 84 -80 84 -75 0 7 -63 87 -148 189 -8 9 -13 17
-10 17 3 0 43 -45 88 -101z m55 51 c27 -27 47 -50 44 -50 -3 0 -27 23 -54 50
-27 28 -47 50 -44 50 3 0 27 -22 54 -50z m35 10 c11 -22 18 -40 15 -40 -2 0
-14 18 -25 40 -11 22 -18 40 -15 40 2 0 14 -18 25 -40z m5010 0 c-11 -22 -23
-40 -25 -40 -3 0 4 18 15 40 11 22 23 40 25 40 3 0 -4 -18 -15 -40z m80 37 c0
-1 -24 -25 -52 -52 l-53 -50 50 53 c46 48 55 57 55 49z m78 -14 c-85 -102
-148 -182 -148 -189 0 -5 38 29 84 75 47 47 82 89 79 94 -4 6 -1 7 7 2 8 -5
-14 -34 -76 -96 -48 -48 -90 -87 -94 -86 -10 3 -552 -360 -551 -369 2 -10 3
-9 -639 -84 -377 -43 -467 -51 -419 -36 8 2 217 28 464 56 352 40 454 55 470
68 17 15 18 15 7 1 -11 -15 -8 -16 33 -11 37 4 76 25 208 114 89 60 161 113
160 117 -1 4 21 30 50 57 l52 49 -50 -52 c-27 -29 -46 -53 -42 -53 4 0 61 36
126 79 103 69 130 94 201 180 45 56 85 101 88 101 3 0 -2 -8 -10 -17z m62 13
c0 -2 -8 -10 -17 -17 -16 -13 -17 -12 -4 4 13 16 21 21 21 13z m-7296 -49 c16
-42 20 -67 11 -67 -2 0 -27 -9 -54 -20 l-49 -19 -20 58 -20 58 47 16 c66 22
67 21 85 -26z m1720 -54 c-3 -10 1 -37 8 -60 12 -38 48 -72 343 -328 182 -158
339 -293 350 -300 12 -7 232 -36 530 -70 281 -32 515 -62 520 -68 6 -6 -2 -7
-25 -4 -19 3 -260 32 -535 64 -488 56 -501 58 -526 83 -15 14 -168 148 -341
298 l-315 272 -12 55 c-7 30 -10 59 -6 65 10 15 14 12 9 -7z m392 -14 c8 -17
34 -52 57 -78 38 -43 37 -42 -16 8 -31 30 -55 57 -52 59 2 3 0 13 -6 23 -5 11
-7 19 -5 19 3 0 13 -14 22 -31z m4925 12 c-6 -10 -8 -20 -6 -23 3 -2 -21 -29
-52 -59 -53 -50 -54 -51 -16 -8 23 26 49 61 57 78 9 17 19 31 22 31 2 0 0 -8
-5 -19z m388 -55 c-11 -44 -24 -57 -338 -329 -179 -155 -335 -291 -346 -302
-18 -18 -82 -27 -546 -82 l-526 -61 -202 -122 c-111 -67 -204 -121 -206 -118
-2 2 89 60 203 129 l207 125 510 58 c298 34 518 64 530 71 11 7 168 142 349
299 181 157 333 286 337 286 3 0 12 21 18 46 9 36 9 50 -1 62 -11 16 -10 16 6
1 15 -14 16 -21 5 -63z m-5989 19 c0 -5 -5 -3 -10 5 -5 8 -10 20 -10 25 0 6 5
3 10 -5 5 -8 10 -19 10 -25z m581 -147 c24 -17 24 -17 -6 -3 -16 8 -68 54
-115 102 l-85 88 91 -85 c50 -47 102 -93 115 -102z m5219 97 c-47 -47 -98 -92
-115 -100 -30 -14 -30 -14 -6 3 13 9 63 54 110 99 47 46 88 83 91 83 2 0 -34
-38 -80 -85z m471 58 c-12 -20 -14 -14 -5 12 4 9 9 14 11 11 3 -2 0 -13 -6
-23z m-6361 -48 c0 -5 -5 -3 -10 5 -5 8 -10 20 -10 25 0 6 5 3 10 -5 5 -8 10
-19 10 -25z m565 -91 c76 -73 537 -441 570 -455 11 -4 247 -34 525 -65 278
-31 510 -62 515 -67 6 -6 -2 -7 -25 -4 -19 3 -260 32 -535 63 -408 47 -503 61
-517 75 -9 9 -127 103 -262 209 -135 106 -244 195 -243 199 1 3 -30 35 -68 70
-96 88 -117 110 -70 73 22 -17 72 -61 110 -98z m5450 107 c-11 -10 -51 -47
-90 -82 -38 -35 -69 -67 -68 -70 1 -4 -118 -101 -265 -216 l-267 -209 -500
-58 c-275 -31 -516 -60 -535 -63 -23 -3 -31 -2 -25 4 6 6 240 36 520 68 281
32 521 63 535 70 33 15 498 380 525 411 24 28 177 164 184 164 3 0 -3 -8 -14
-19z m436 -8 c-12 -20 -14 -14 -5 12 4 9 9 14 11 11 3 -2 0 -13 -6 -23z
m-5810 -343 c175 -171 317 -315 314 -320 -2 -4 222 -111 498 -239 l502 -231
280 -2 280 -3 -280 -5 -280 -5 -511 235 c-281 129 -509 240 -507 245 2 6 -138
149 -312 319 -266 259 -315 312 -314 334 1 22 3 23 6 6 2 -12 148 -162 324
-334z m5174 -6 c-175 -171 -316 -315 -313 -320 3 -5 -224 -115 -506 -244
l-511 -235 -280 5 -280 5 280 3 280 2 502 231 c276 128 500 235 498 239 -3 5
139 149 315 321 201 197 321 320 321 333 1 17 3 16 7 -4 4 -22 -35 -64 -313
-336z m-6755 318 c0 -4 -5 -14 -10 -22 -9 -13 -11 -13 -20 0 -6 10 -10 11 -10
3 0 -7 -7 -13 -15 -13 -24 0 -17 17 10 24 14 4 25 11 25 17 0 6 5 7 10 4 6 -3
10 -9 10 -13z m1504 -368 l327 -351 502 -232 502 -231 303 0 302 0 0 -221 0
-221 25 -20 c29 -23 32 -44 8 -70 -20 -22 -41 -23 -65 -1 -24 21 -23 45 2 68
19 17 20 31 20 237 l0 219 -302 -1 -302 -1 -506 232 c-288 133 -511 242 -519
253 -12 16 -176 194 -610 660 -20 21 -31 37 -25 35 7 -2 159 -162 338 -355z
m5630 314 c-132 -139 -592 -636 -604 -653 -9 -12 -225 -118 -525 -255 l-510
-235 -305 5 -305 5 305 3 305 2 502 231 502 232 328 353 c180 194 332 353 338
354 5 0 -9 -19 -31 -42z m1429 -10 c4 1 7 -2 7 -8 0 -5 3 -9 8 -8 4 1 23 -4
42 -11 19 -8 38 -13 43 -12 4 0 7 -6 7 -14 0 -9 6 -12 15 -9 8 4 15 1 15 -5 0
-6 3 -10 8 -8 8 2 12 -6 12 -25 0 -9 -3 -10 -8 -2 -9 15 -55 39 -66 36 -5 -2
-12 1 -15 5 -5 7 -57 35 -71 38 -17 3 -50 27 -50 36 0 6 9 5 23 -3 12 -7 25
-11 30 -10z m-7149 -343 c179 -192 321 -352 315 -354 -6 -2 191 -95 438 -208
287 -131 457 -214 473 -231 18 -19 19 -21 3 -8 -12 10 -226 111 -475 225 -249
115 -452 213 -451 219 2 8 -226 259 -616 676 -20 21 -31 37 -24 35 6 -2 158
-161 337 -354z m5810 313 c-134 -141 -592 -637 -609 -660 -15 -20 -130 -77
-468 -231 -444 -203 -448 -205 -537 -281 -50 -43 -90 -75 -90 -73 0 3 42 42
94 86 l93 80 444 203 c244 112 445 207 445 212 3 13 648 705 659 706 5 0 -9
-19 -31 -42z m-7197 -128 l80 -156 -48 -27 c-27 -15 -51 -27 -53 -27 -6 0
-122 219 -146 275 l-20 46 53 24 c28 12 53 22 53 21 1 0 37 -71 81 -156z
m8382 83 c1 -1 -8 -27 -22 -57 l-26 -56 -55 27 c-43 21 -53 30 -46 42 4 9 15
33 23 53 l16 37 53 -22 c29 -12 55 -22 57 -24z m-7093 -311 c328 -346 361
-382 351 -382 -5 0 -650 680 -676 713 -48 61 36 -24 325 -331z m474 242 c0 -2
-34 18 -75 46 -41 28 -75 53 -75 56 0 2 34 -18 75 -46 41 -28 75 -53 75 -56z
m4890 101 c0 -2 -35 -28 -77 -56 -43 -28 -73 -46 -67 -40 10 11 134 99 142
100 1 1 2 -1 2 -4z m649 -12 c-26 -33 -671 -713 -676 -713 -10 0 23 36 351
382 289 307 373 392 325 331z m732 -58 l50 -26 -39 -72 c-22 -40 -58 -107 -81
-149 -23 -43 -47 -80 -52 -84 -9 -5 -99 41 -99 52 0 9 162 304 166 304 3 0 27
-11 55 -25z m-6141 -121 c0 -2 -27 14 -60 36 -33 22 -60 43 -60 46 0 2 27 -14
60 -36 33 -22 60 -43 60 -46z m4600 81 c0 -2 -28 -23 -62 -46 -35 -23 -58 -36
-52 -30 10 11 105 79 112 80 1 1 2 -1 2 -4z m2560 -86 c0 -7 39 -22 53 -20 4
1 7 -3 7 -8 0 -9 38 -24 53 -22 4 1 10 -5 13 -12 3 -8 16 -13 29 -12 13 2 26
-3 29 -12 3 -8 10 -11 16 -8 5 3 10 1 10 -4 0 -6 4 -11 10 -11 17 0 90 -34 90
-42 0 -12 -38 -10 -45 3 -4 5 -12 8 -18 6 -7 -2 -16 2 -22 10 -5 7 -19 15 -30
17 -11 2 -44 16 -73 31 -28 14 -57 23 -62 20 -6 -3 -10 1 -10 9 0 10 -6 13
-15 10 -8 -4 -15 -2 -15 4 0 5 -11 13 -25 16 -27 7 -35 33 -10 33 8 0 15 -4
15 -8z m-6406 -213 l521 -61 163 -103 c90 -56 169 -99 175 -96 9 5 9 4 1 -5
-9 -10 -48 9 -175 89 l-164 102 -528 62 c-302 35 -531 66 -535 72 -4 6 -51 41
-104 78 -54 37 -98 70 -98 73 0 2 50 -30 112 -73 l112 -77 520 -61z m3716 210
c0 -3 -44 -35 -97 -72 -54 -37 -101 -72 -105 -78 -4 -6 -233 -37 -535 -72
l-528 -62 -163 -102 c-90 -56 -165 -100 -167 -98 -2 2 71 51 163 108 l167 105
521 61 520 61 110 76 c113 79 114 80 114 73z m1348 -53 c26 -15 49 -28 51 -29
9 -7 -173 -286 -274 -420 l-61 -82 -47 35 c-38 28 -45 38 -37 51 6 10 53 75
104 146 52 71 120 173 152 227 33 54 60 99 62 99 2 0 24 -12 50 -27z m-8659
-107 c-9 -8 -10 -8 -5 2 4 7 1 12 -8 12 -8 0 -16 -6 -18 -12 -3 -7 -7 -3 -10
9 -5 17 -2 21 13 18 10 -2 22 2 26 8 5 8 9 6 11 -7 2 -10 -2 -23 -9 -30z
m9126 22 c25 -12 45 -26 45 -32 0 -12 -49 -96 -56 -96 -13 0 -94 53 -94 61 0
15 44 89 52 89 4 0 28 -10 53 -22z m-8317 -54 c12 -25 20 -49 17 -54 -3 -5
-25 -20 -50 -33 l-44 -25 -29 53 -29 53 46 26 c25 14 51 26 57 26 5 0 20 -21
32 -46z m9532 31 c0 -8 -7 -15 -15 -15 -16 0 -20 12 -8 23 11 12 23 8 23 -8z
m81 -38 c3 -5 10 -9 15 -9 20 -1 54 -18 54 -28 0 -15 -10 -13 -72 19 -31 16
-59 26 -62 23 -3 -3 -6 4 -6 16 0 21 1 21 32 4 18 -9 36 -21 39 -25z m-6015
-124 c112 -70 201 -129 199 -131 -3 -4 -387 230 -409 250 -6 4 -6 8 -1 8 4 0
99 -57 211 -127z m1559 119 c-22 -19 -407 -254 -410 -250 -5 5 396 257 410
258 6 0 6 -3 0 -8z m-4705 -233 c47 -68 84 -126 83 -129 -2 -3 -22 -20 -47
-38 l-44 -32 -81 117 c-45 65 -91 132 -102 149 l-19 31 47 32 c56 37 38 51
163 -130z m3006 -46 c112 -70 201 -129 199 -131 -3 -4 -387 230 -409 250 -6 4
-6 8 -1 8 4 0 99 -57 211 -127z m1839 119 c-22 -19 -407 -254 -410 -250 -5 5
396 257 410 258 6 0 6 -3 0 -8z m2577 -23 l48 -31 -60 -86 c-75 -109 -148
-202 -158 -202 -4 0 -25 16 -47 34 -31 27 -38 38 -30 49 54 78 191 266 194
267 2 0 26 -14 53 -31z m-5162 -64 c332 -35 386 -42 378 -50 -2 -2 -161 13
-353 35 -193 21 -351 37 -353 35 -1 -1 180 -71 403 -154 l405 -152 80 2 c43 2
82 0 86 -4 14 -14 -182 -7 -212 7 -16 8 -207 80 -424 161 -217 81 -402 151
-410 156 -10 7 -2 8 25 5 22 -3 191 -22 375 -41z m3515 32 c-11 -7 -210 -84
-441 -170 l-421 -157 -93 0 c-51 0 -90 3 -86 7 3 4 46 6 94 5 l87 -2 410 155
c258 98 393 154 365 151 -25 -3 -173 -19 -330 -36 -157 -17 -303 -33 -325 -36
-22 -4 -36 -2 -32 2 6 7 678 87 772 93 19 1 19 1 0 -12z m1935 -47 l23 -18
-29 -46 c-31 -50 -32 -50 -93 -12 l-41 26 31 50 31 50 27 -16 c15 -9 38 -24
51 -34z m-4767 -76 c208 -126 205 -124 191 -124 -10 0 -373 215 -388 231 -27
25 23 -1 197 -107z m-3214 47 l30 -50 -49 -35 -49 -35 -32 50 c-17 27 -29 52
-26 55 4 4 87 60 94 63 1 1 15 -21 32 -48z m3676 -1 c10 -11 16 -20 13 -20 -3
0 -13 9 -23 20 -10 11 -16 20 -13 20 3 0 13 -9 23 -20z m-3036 -110 c51 -60
140 -159 198 -220 l106 -111 -42 -42 -42 -42 -102 105 c-56 58 -147 158 -202
224 l-99 118 44 39 c25 21 46 39 46 39 1 0 43 -49 93 -110z m2886 90 c10 -11
16 -20 13 -20 -3 0 -13 9 -23 20 -10 11 -16 20 -13 20 3 0 13 -9 23 -20z
m1706 2 c-38 -27 -107 -66 -96 -55 12 13 108 73 115 72 3 0 -6 -8 -19 -17z
m-2241 -18 c0 -2 -9 0 -20 6 -11 6 -20 13 -20 16 0 2 9 0 20 -6 11 -6 20 -13
20 -16z m-158 -21 c10 -9 18 -24 18 -34 0 -10 9 -21 21 -24 11 -4 18 -9 16
-12 -3 -2 -14 0 -25 6 -15 8 -23 7 -32 -4 -16 -20 -39 -19 -62 2 -22 20 -23
41 -1 65 20 22 41 23 65 1z m365 -100 c62 -37 111 -69 109 -70 -4 -5 -306 176
-306 183 0 3 19 -6 43 -20 23 -15 92 -56 154 -93z m526 102 c-3 -9 -8 -14 -10
-11 -3 3 -2 9 2 15 9 16 15 13 8 -4z m744 -7 c-3 -8 -6 -5 -6 6 -1 11 2 17 5
13 3 -3 4 -12 1 -19z m935 5 c22 -20 23 -41 1 -65 -18 -20 -48 -24 -59 -7 -3
6 -18 8 -33 5 -21 -5 -23 -4 -8 4 9 6 17 18 17 27 0 21 29 53 48 53 9 0 24 -7
34 -17z m-3159 -280 c141 -64 257 -121 258 -127 0 -9 168 -144 217 -175 5 -3
22 -46 37 -96 15 -49 35 -99 46 -111 23 -25 24 -42 2 -66 -20 -22 -41 -23 -65
-1 -25 23 -23 48 8 72 l25 20 -25 83 -26 83 -115 89 c-63 48 -115 91 -115 95
0 4 -198 97 -440 206 -242 109 -440 202 -440 206 0 4 84 -31 188 -77 103 -47
303 -137 445 -201z m4326 273 c-3 -3 -198 -92 -435 -199 -392 -177 -438 -201
-510 -259 -43 -35 -98 -77 -121 -93 -37 -27 -44 -39 -68 -118 l-26 -88 25 -20
c30 -24 33 -45 9 -71 -20 -22 -41 -23 -65 -1 -23 21 -23 45 0 67 10 9 31 59
47 111 l28 94 106 82 c58 46 111 88 117 95 12 15 886 413 893 407 2 -1 2 -5 0
-7z m-2969 -41 c0 -5 -5 -3 -10 5 -5 8 -10 20 -10 25 0 6 5 3 10 -5 5 -8 10
-19 10 -25z m991 8 c-12 -20 -14 -14 -5 12 4 9 9 14 11 11 3 -2 0 -13 -6 -23z
m529 12 c0 -2 -10 -9 -22 -15 -22 -11 -22 -10 -4 4 21 17 26 19 26 11z m-1370
-50 c0 -5 -5 -3 -10 5 -5 8 -10 20 -10 25 0 6 5 3 10 -5 5 -8 10 -19 10 -25z
m691 8 c-12 -20 -14 -14 -5 12 4 9 9 14 11 11 3 -2 0 -13 -6 -23z m629 12 c0
-2 -10 -9 -22 -15 -22 -11 -22 -10 -4 4 21 17 26 19 26 11z m-1431 -80 c0 -5
-8 6 -19 25 -11 19 -19 40 -19 45 0 6 8 -6 19 -25 11 -19 19 -39 19 -45z m922
28 c-11 -21 -20 -35 -21 -31 0 12 33 78 38 74 2 -2 -6 -21 -17 -43z m-1631 27
c8 -5 11 -10 5 -10 -5 0 -17 5 -25 10 -8 5 -10 10 -5 10 6 0 17 -5 25 -10z
m560 -10 c6 -11 8 -20 6 -20 -3 0 -10 9 -16 20 -6 11 -8 20 -6 20 3 0 10 -9
16 -20z m1780 10 c-8 -5 -19 -10 -25 -10 -5 0 -3 5 5 10 8 5 20 10 25 10 6 0
3 -5 -5 -10z m-267 -18 c-27 -20 -131 -79 -121 -67 9 9 131 84 138 84 3 0 -5
-7 -17 -17z m-1224 -47 c0 -5 -6 1 -14 15 -8 14 -14 30 -14 35 0 6 6 -1 14
-15 8 -14 14 -29 14 -35z m637 18 c-8 -15 -15 -25 -16 -21 0 12 23 58 27 54 3
-2 -2 -17 -11 -33z m264 7 c-6 -11 -13 -20 -16 -20 -2 0 0 9 6 20 6 11 13 20
16 20 2 0 0 -9 -6 -20z m2192 -52 c21 -20 38 -41 38 -47 0 -16 -6 -14 -32 12
-53 52 -70 76 -62 88 6 10 9 10 12 -1 3 -8 22 -31 44 -52z m-3822 42 c8 -5 11
-10 5 -10 -5 0 -17 5 -25 10 -8 5 -10 10 -5 10 6 0 17 -5 25 -10z m2100 0 c-8
-5 -19 -10 -25 -10 -5 0 -3 5 5 10 8 5 20 10 25 10 6 0 3 -5 -5 -10z m2035
-50 l39 -40 -29 -32 c-16 -18 -50 -54 -74 -80 -42 -45 -44 -48 -28 -66 17 -18
23 -42 11 -42 -10 0 -34 29 -34 42 0 7 -39 -26 -87 -72 -49 -47 -109 -105
-135 -129 l-47 -44 -40 44 -40 44 125 118 c68 65 124 123 124 129 0 5 -14 23
-31 39 -17 16 -28 33 -24 39 4 6 21 -6 42 -27 l36 -38 70 78 c39 42 74 77 77
77 3 0 23 -18 45 -40z m-3516 -25 c0 -5 -6 1 -14 15 -8 14 -14 30 -14 35 0 6
6 -1 14 -15 8 -14 14 -29 14 -35z m857 18 c-8 -15 -15 -25 -16 -21 0 12 23 58
27 54 3 -2 -2 -17 -11 -33z m-726 -8 c0 -5 -5 -3 -10 5 -5 8 -10 20 -10 25 0
6 5 3 10 -5 5 -8 10 -19 10 -25z m591 8 c-12 -20 -14 -14 -5 12 4 9 9 14 11
11 3 -2 0 -13 -6 -23z m3365 -5 c24 -17 44 -33 44 -36 0 -2 -14 -23 -32 -46
-17 -22 -33 -43 -34 -44 -3 -5 -93 61 -94 69 0 7 61 89 67 89 2 0 25 -14 49
-32z m-7549 -42 l32 -44 -37 -28 c-20 -15 -42 -31 -49 -36 -7 -6 -23 6 -47 38
l-36 46 43 34 c23 18 47 33 52 33 6 0 24 -19 42 -43z m370 -38 c34 -40 85 -95
113 -123 27 -27 50 -54 49 -60 0 -5 -19 -26 -41 -45 l-41 -35 -81 86 c-45 47
-99 107 -120 132 l-39 47 39 35 c21 19 44 34 49 35 6 0 38 -33 72 -72z m3113
17 c0 -5 -5 -3 -10 5 -5 8 -10 20 -10 25 0 6 5 3 10 -5 5 -8 10 -19 10 -25z
m811 8 c-12 -20 -14 -14 -5 12 4 9 9 14 11 11 3 -2 0 -13 -6 -23z m-913 -259
l-3 -259 -5 267 c-3 147 -2 264 3 259 4 -4 6 -124 5 -267z m229 -127 c-1 -73
-3 -10 -3 138 0 149 2 208 3 132 2 -76 2 -198 0 -270z m550 0 c-1 -73 -3 -10
-3 138 0 149 2 208 3 132 2 -76 2 -198 0 -270z m233 136 l-5 -268 -3 255 c-2
226 0 280 10 280 2 0 1 -120 -2 -267z m-1123 -135 c-1 -73 -3 -14 -3 132 0
146 2 205 3 133 2 -73 2 -193 0 -265z m230 0 c-1 -73 -3 -14 -3 132 0 146 2
205 3 133 2 -73 2 -193 0 -265z m770 0 c-1 -73 -3 -14 -3 132 0 146 2 205 3
133 2 -73 2 -193 0 -265z m230 0 c-1 -73 -3 -14 -3 132 0 146 2 205 3 133 2
-73 2 -193 0 -265z m2622 324 l44 -38 -126 -129 -126 -130 -42 42 -43 42 120
125 c65 68 121 125 124 125 3 1 25 -16 49 -37z m-2494 -474 c29 -23 32 -44 8
-70 -20 -22 -41 -23 -65 -1 -24 21 -23 45 2 68 19 17 20 32 22 244 l3 226 2
-224 3 -223 25 -20z m-3613 389 c-7 -8 -8 -17 -4 -21 4 -4 3 -6 -3 -5 -5 1
-30 -16 -54 -39 -48 -46 -71 -50 -27 -5 41 42 76 87 76 98 0 5 5 4 12 -3 8 -8
8 -15 0 -25z m1414 1 l29 -33 -32 29 c-31 28 -38 36 -30 36 2 0 16 -15 33 -32z
m70 -60 l29 -33 -32 29 c-31 28 -38 36 -30 36 2 0 16 -15 33 -32z m554 -141
c0 -161 1 -175 20 -192 24 -22 25 -42 3 -67 -20 -22 -41 -23 -65 -1 -25 22
-23 48 7 71 25 20 25 21 25 186 l0 166 -207 3 -208 2 213 3 212 2 0 -173z
m1883 166 l-213 -3 0 -166 c0 -165 0 -166 25 -186 29 -23 32 -44 8 -70 -20
-22 -41 -23 -65 -1 -24 21 -23 45 2 68 19 17 20 31 20 192 l0 173 218 -2 217
-3 -212 -2z m2394 -49 l44 -36 -38 -41 c-21 -23 -40 -42 -43 -42 -3 0 -25 16
-49 37 l-43 36 37 41 c21 23 40 41 43 41 3 0 25 -16 49 -36z m-4355 -11 c10
-9 18 -23 18 -31 0 -21 -29 -52 -48 -52 -19 0 -52 29 -52 46 0 9 -19 14 -57
17 l-58 3 61 2 c41 1 66 7 74 17 16 20 39 19 62 -2z m1868 2 c8 -10 34 -16 79
-17 l66 -2 -62 -3 c-38 -3 -63 -8 -63 -15 0 -17 -31 -48 -48 -48 -21 0 -52 29
-52 48 0 21 30 52 50 52 10 0 23 -7 30 -15z m-2274 -27 l29 -33 -32 29 c-31
28 -38 36 -30 36 2 0 16 -15 33 -32z m2664 29 c0 -2 -15 -16 -32 -33 l-33 -29
29 33 c28 30 36 37 36 29z m-4320 -39 c0 -6 -7 -7 -16 -4 -9 4 -14 1 -12 -6 2
-6 11 -12 20 -14 9 -1 45 -26 80 -56 77 -65 241 -189 326 -247 34 -23 62 -44
62 -47 0 -3 -40 -69 -57 -93 -8 -11 -336 229 -448 327 l-37 33 21 23 c19 20
20 24 7 29 -22 9 -20 30 4 45 11 7 20 19 20 28 0 14 3 14 15 4 8 -7 15 -17 15
-22z m1711 -35 c13 -16 12 -17 -3 -4 -10 7 -18 15 -18 17 0 8 8 3 21 -13z
m2539 13 c0 -2 -8 -10 -17 -17 -16 -13 -17 -12 -4 4 13 16 21 21 21 13z
m-4320 -37 c0 -7 -9 -20 -21 -30 -11 -10 -22 -26 -24 -36 -1 -10 -8 -17 -14
-15 -28 6 -4 -21 77 -89 48 -40 93 -78 101 -85 12 -11 9 -20 -20 -58 -19 -25
-37 -44 -41 -43 -4 1 -52 39 -107 85 -55 45 -103 82 -106 82 -10 0 -62 -58
-82 -92 -19 -31 -33 -36 -33 -13 0 8 5 15 10 15 6 0 10 7 10 16 0 8 5 12 10 9
6 -3 10 -2 10 4 0 6 14 24 31 42 l30 31 -22 24 -22 23 37 46 38 45 26 -21 26
-20 33 38 c18 21 33 41 33 45 0 5 5 8 10 8 6 0 10 -5 10 -11z m1907 -11 c-3
-8 -6 -5 -6 6 -1 11 2 17 5 13 3 -3 4 -12 1 -19z m2270 0 c-3 -8 -6 -5 -6 6
-1 11 2 17 5 13 3 -3 4 -12 1 -19z m-2314 -195 c21 -24 22 -41 0 -65 -20 -22
-41 -23 -65 -1 -25 23 -23 48 8 72 l26 20 -26 78 c-14 43 -26 83 -25 88 0 6
15 -31 32 -82 18 -50 40 -100 50 -110z m2412 107 l-27 -81 21 -23 c25 -27 26
-43 4 -68 -20 -22 -41 -23 -65 -1 -25 22 -23 48 6 70 15 12 33 49 52 106 15
47 30 85 32 82 2 -2 -8 -40 -23 -85z m-2358 48 c-3 -8 -6 -5 -6 6 -1 11 2 17
5 13 3 -3 4 -12 1 -19z m2250 0 c-3 -8 -6 -5 -6 6 -1 11 2 17 5 13 3 -3 4 -12
1 -19z m-2240 -40 c-3 -8 -6 -5 -6 6 -1 11 2 17 5 13 3 -3 4 -12 1 -19z m2230
0 c-3 -8 -6 -5 -6 6 -1 11 2 17 5 13 3 -3 4 -12 1 -19z m2193 -59 c0 -7 3 -10
6 -6 3 3 18 -8 31 -24 14 -16 22 -33 19 -37 -4 -4 -23 11 -42 33 -19 22 -34
35 -34 30 0 -6 -7 3 -15 19 -22 42 -18 50 10 22 14 -14 25 -31 25 -37z m-460
-40 c1 -15 -271 -229 -282 -223 -4 3 -21 24 -37 48 l-30 43 72 55 c40 31 101
81 137 111 l65 54 37 -41 c20 -22 37 -44 38 -47z m-3953 59 c-3 -8 -6 -5 -6 6
-1 11 2 17 5 13 3 -3 4 -12 1 -19z m2210 0 c-3 -8 -6 -5 -6 6 -1 11 2 17 5 13
3 -3 4 -12 1 -19z m1380 -41 l32 -44 -82 -60 c-144 -105 -414 -280 -421 -272
-1 2 -15 26 -30 53 -23 39 -26 50 -15 56 77 44 300 190 377 247 53 39 99 70
102 68 3 -2 20 -23 37 -48z m718 14 l42 -39 -44 -45 -45 -44 -41 44 -40 44 38
39 c22 22 41 40 43 40 3 0 24 -18 47 -39z m-6622 -27 l39 -36 -34 -37 c-18
-20 -36 -40 -41 -46 -4 -5 -26 9 -51 34 l-43 43 41 39 c22 21 43 38 46 38 3 0
22 -16 43 -35z m2324 14 c-3 -8 -6 -5 -6 6 -1 11 2 17 5 13 3 -3 4 -12 1 -19z
m2190 0 c-3 -8 -6 -5 -6 6 -1 11 2 17 5 13 3 -3 4 -12 1 -19z m-2155 -35 c22
-20 23 -41 1 -65 -20 -22 -41 -23 -65 -1 -22 20 -23 41 -1 65 20 22 41 23 65
1z m110 0 c22 -20 23 -41 1 -65 -20 -22 -41 -23 -65 -1 -22 20 -23 41 -1 65
20 22 41 23 65 1z m370 0 c22 -20 23 -41 1 -65 -20 -22 -41 -23 -65 -1 -22 20
-23 41 -1 65 20 22 41 23 65 1z m120 0 c22 -20 23 -41 1 -65 -20 -22 -41 -23
-65 -1 -22 20 -23 41 -1 65 20 22 41 23 65 1z m110 0 c22 -20 23 -41 1 -65
-20 -22 -41 -23 -65 -1 -22 20 -23 41 -1 65 20 22 41 23 65 1z m120 0 c22 -20
23 -41 1 -65 -20 -22 -41 -23 -65 -1 -22 20 -23 41 -1 65 20 22 41 23 65 1z
m520 0 c22 -20 23 -41 1 -65 -20 -22 -41 -23 -65 -1 -22 20 -23 41 -1 65 20
22 41 23 65 1z m110 0 c22 -20 23 -41 1 -65 -20 -22 -41 -23 -65 -1 -22 20
-23 41 -1 65 20 22 41 23 65 1z m120 0 c22 -20 23 -41 1 -65 -20 -22 -41 -23
-65 -1 -22 20 -23 41 -1 65 20 22 41 23 65 1z m120 0 c22 -20 23 -41 1 -65
-20 -22 -41 -23 -65 -1 -22 20 -23 41 -1 65 20 22 41 23 65 1z m360 0 c22 -20
23 -41 1 -65 -20 -22 -41 -23 -65 -1 -22 20 -23 41 -1 65 20 22 41 23 65 1z
m120 0 c22 -20 23 -41 1 -65 -20 -22 -41 -23 -65 -1 -22 20 -23 41 -1 65 20
22 41 23 65 1z m2308 -64 c0 -6 5 -7 10 -4 6 3 10 1 10 -6 0 -6 9 -20 21 -30
11 -10 18 -22 15 -27 -5 -9 -32 14 -95 81 -31 34 -18 53 14 21 14 -14 25 -29
25 -35z m-6740 -55 c0 -8 -4 -12 -10 -9 -5 3 -10 13 -10 21 0 8 5 12 10 9 6
-3 10 -13 10 -21z m6250 -76 l40 -43 -46 -42 -47 -42 -38 47 -38 47 42 37 c23
21 43 38 44 38 1 0 20 -19 43 -42z m-6091 -22 l41 -34 -36 -44 c-20 -23 -39
-44 -43 -45 -3 -1 -25 15 -48 35 l-42 37 35 43 c20 23 39 42 44 42 4 0 26 -15
49 -34z m503 -29 c35 -24 99 -66 143 -92 44 -27 82 -50 83 -51 10 -7 -55 -104
-65 -99 -19 7 -247 152 -272 173 l-21 17 31 48 c17 26 33 47 35 47 2 0 31 -20
66 -43z m475 -56 c70 -39 187 -95 258 -127 72 -31 132 -58 134 -60 2 -2 -6
-28 -18 -58 l-22 -54 -92 40 c-81 35 -399 193 -436 217 -11 7 -8 18 15 60 16
28 30 51 31 51 1 0 59 -31 130 -69z m4513 -1 c18 -28 31 -52 29 -54 -8 -8
-246 -154 -275 -169 l-31 -16 -28 51 c-23 43 -26 53 -14 60 12 7 281 174 285
177 1 1 16 -22 34 -49z m-3641 -6 c-6 -8 -9 -14 -6 -14 3 0 -1 -16 -9 -35 -8
-19 -12 -35 -9 -35 4 0 3 -6 -2 -12 -4 -7 -8 -16 -9 -20 -1 -5 -3 -10 -4 -13
-1 -3 -3 -8 -5 -12 -1 -5 -7 -20 -13 -35 -6 -15 -9 -35 -6 -43 4 -8 1 -15 -5
-15 -6 0 -8 -7 -5 -15 4 -8 1 -15 -6 -15 -7 0 -10 -7 -6 -15 3 -8 2 -15 -3
-15 -8 0 -33 -72 -30 -87 1 -4 -1 -15 -4 -23 -4 -8 -13 -34 -21 -57 l-15 -42
60 -17 c64 -18 65 -20 48 -89 -12 -48 -17 -49 -87 -24 -51 19 -56 14 -86 -88
-49 -166 -98 -328 -105 -338 -3 -5 -6 -15 -7 -21 -1 -6 -5 -25 -9 -42 -6 -29
-5 -31 47 -46 640 -186 1386 -242 2068 -155 274 34 505 82 776 158 156 44 450
146 476 165 15 11 13 22 -25 124 -24 65 -48 112 -55 112 -7 0 -10 4 -7 10 3 5
-1 23 -10 40 -9 17 -18 46 -20 65 -3 19 -16 63 -31 99 -19 49 -29 63 -42 59
-23 -6 -63 104 -43 116 14 9 5 60 -13 67 -10 4 -124 -34 -217 -70 -12 -5 -19
6 -33 50 -10 30 -16 57 -14 59 2 2 48 20 102 39 55 19 104 40 109 45 10 10 0
45 -42 149 -16 39 -17 52 -7 52 7 0 19 -19 25 -42 7 -24 22 -62 32 -85 10 -23
19 -47 19 -53 0 -15 22 -8 173 61 l127 58 26 -51 c14 -27 24 -51 22 -53 -8 -7
-171 -85 -230 -110 -38 -15 -68 -31 -67 -34 0 -3 6 -21 12 -38 l12 -33 134 60
c74 33 135 59 136 58 8 -9 45 -89 45 -96 0 -8 -139 -77 -232 -116 -21 -8 -38
-17 -38 -20 0 -7 48 -135 55 -146 3 -5 22 -2 41 6 20 8 38 13 41 10 3 -3 16
-27 28 -55 l24 -50 -45 -17 c-24 -9 -44 -18 -44 -19 0 -9 84 -222 90 -228 11
-12 186 65 422 186 109 55 201 97 205 94 10 -11 -4 -21 -133 -91 -102 -55
-406 -198 -466 -219 -16 -6 -16 -11 4 -69 11 -35 24 -67 28 -73 4 -5 15 -35
25 -65 10 -30 23 -68 31 -85 32 -75 194 -517 194 -532 0 -34 -18 4 -75 157
-31 85 -61 157 -66 158 -5 2 -7 7 -4 12 3 5 -8 42 -25 83 -16 42 -30 80 -30
86 0 6 -8 11 -17 11 -14 0 -15 2 -5 9 11 7 10 16 -6 52 -11 24 -25 62 -32 84
-7 22 -20 58 -30 80 -9 22 -20 48 -23 57 -6 16 -13 15 -89 -13 -443 -166 -867
-264 -1354 -315 -209 -22 -741 -25 -939 -6 -319 32 -618 85 -894 158 -123 33
-163 37 -160 17 1 -4 0 -11 -1 -15 -1 -5 -4 -12 -5 -18 -1 -5 -3 -11 -4 -12
-1 -2 -4 -18 -6 -37 -1 -18 -8 -37 -15 -41 -7 -4 -9 -13 -6 -19 4 -6 2 -11 -4
-11 -7 0 -10 -7 -6 -15 3 -9 0 -15 -10 -15 -17 0 -15 22 8 77 10 26 13 33 17
48 0 3 0 7 -1 8 -2 2 2 10 7 18 6 8 10 25 10 38 0 21 -15 28 -165 81 -287 100
-534 207 -760 330 -208 113 -253 141 -242 152 7 7 48 -12 126 -56 262 -150
571 -290 880 -398 132 -46 171 -56 182 -47 8 7 12 14 9 17 -3 3 0 11 6 19 6 7
9 13 6 13 -3 0 1 16 9 35 8 20 12 40 9 45 -4 6 -1 10 5 10 7 0 10 7 6 15 -3 8
-1 15 5 15 6 0 9 7 5 15 -3 8 -1 15 4 15 6 0 10 9 10 19 0 15 -13 24 -52 37
-29 9 -54 18 -56 19 -2 2 11 42 33 102 3 10 15 9 52 -2 26 -8 51 -15 55 -15 3
0 18 35 32 77 20 59 23 79 13 85 -6 4 -48 20 -92 34 -44 15 -83 29 -87 33 -3
3 3 30 14 59 16 42 23 52 36 47 44 -17 173 -57 175 -54 12 19 57 181 52 189
-3 5 -2 10 3 10 5 0 26 55 47 123 21 67 40 127 44 132 3 6 6 16 7 23 5 28 14
43 24 37 8 -5 7 -11 -1 -21z m3972 -181 c-14 -12 -37 -28 -51 -36 -24 -14 -26
-13 -57 34 l-33 48 46 35 46 35 38 -47 38 -47 -27 -22z m1178 -8 l33 -37 47
44 46 43 -38 -40 c-20 -23 -37 -46 -37 -52 0 -6 27 -38 60 -71 33 -34 60 -67
60 -73 0 -7 3 -10 6 -7 7 7 54 -39 54 -53 0 -6 5 -7 10 -4 6 3 10 0 10 -8 0
-8 7 -17 15 -21 8 -3 15 -13 15 -23 0 -11 -41 24 -110 97 -60 63 -110 118
-110 123 0 4 -4 6 -9 3 -5 -3 -12 1 -15 10 -3 8 -11 12 -17 8 -7 -4 -9 -3 -6
3 7 11 -49 73 -65 73 -4 0 -8 7 -8 16 0 8 -4 12 -10 9 -5 -3 -10 -1 -10 6 0 6
-9 20 -21 30 -11 10 -18 23 -14 29 7 11 18 1 114 -105z m-6721 64 c25 -18 39
-36 35 -42 -4 -7 -18 -28 -32 -47 -14 -19 -26 -36 -27 -38 -1 -2 -25 13 -54
34 -28 20 -48 40 -43 43 5 3 22 23 37 44 16 20 31 37 35 37 4 0 26 -14 49 -31z
m-1283 -69 c21 -22 37 -40 34 -40 -3 0 -23 18 -44 40 -21 22 -37 40 -34 40 3
0 23 -18 44 -40z m95 -95 c19 -19 32 -35 29 -35 -3 0 -20 16 -39 35 -19 19
-32 35 -29 35 3 0 20 -16 39 -35z m3940 -94 c0 -55 3 -101 8 -103 4 -2 68 -1
142 2 74 3 135 5 136 5 1 0 4 -28 7 -61 l6 -62 -149 -7 -150 -7 0 -40 0 -40
108 3 107 4 3 -56 3 -56 -53 -6 c-29 -4 -79 -7 -110 -7 l-58 0 0 -90 0 -90 54
0 54 0 4 -60 3 -60 -57 0 c-55 0 -58 -1 -58 -25 0 -14 -4 -25 -10 -25 -5 0
-10 11 -10 25 0 24 -2 25 -72 25 l-73 0 3 60 4 60 54 0 54 0 0 -55 c0 -42 3
-55 15 -55 13 0 15 23 15 144 l0 143 -187 7 c-104 4 -191 10 -195 14 -3 4 -4
31 -1 60 l6 53 188 -7 189 -7 0 42 0 41 -82 0 c-102 0 -331 16 -456 31 l-92
12 5 36 c15 89 10 84 73 77 201 -22 328 -29 505 -27 l47 1 0 100 c0 60 4 100
10 100 6 0 10 -40 10 -99z m-2454 63 c24 -14 42 -29 40 -32 -2 -4 -15 -28 -30
-54 l-27 -47 -50 30 c-27 17 -49 33 -49 36 0 12 55 93 63 93 5 0 28 -12 53
-26z m3570 -74 c8 -25 14 -48 14 -52 0 -15 -235 -71 -453 -108 -71 -12 -131
-20 -132 -18 -2 2 -8 29 -13 60 l-9 57 71 11 c107 17 364 68 421 84 75 22 86
18 101 -34z m-4866 -70 c0 -6 -4 -9 -9 -7 -10 2 -81 -87 -81 -102 0 -6 -7 -11
-15 -11 -26 0 -16 23 31 75 24 27 42 55 39 62 -3 11 0 11 15 3 11 -6 20 -15
20 -20z m5950 -84 c0 -5 -90 -56 -99 -56 -8 0 -51 85 -51 100 0 5 21 20 47 34
l48 24 27 -49 c16 -26 28 -50 28 -53z m-4350 59 c28 -14 50 -28 50 -31 0 -9
-50 -104 -55 -104 -3 0 -27 12 -54 27 l-49 27 26 53 c15 29 28 53 29 53 2 0
26 -11 53 -25z m-1746 -133 c-16 -15 -42 -45 -59 -65 -59 -74 -115 -127 -115
-111 0 5 14 25 30 44 16 19 30 38 30 41 0 3 11 12 25 19 14 7 25 19 25 27 0 7
5 13 10 13 6 0 10 7 10 16 0 8 5 12 10 9 6 -3 10 1 10 9 0 9 7 16 15 16 8 0
15 8 15 17 0 13 3 14 12 5 8 -8 4 -18 -18 -40z m3031 4 c44 -8 113 -20 154
-27 l74 -11 -6 -55 c-3 -30 -7 -57 -9 -59 -5 -4 -94 9 -244 37 -105 19 -111
22 -107 42 20 88 24 98 41 93 9 -3 53 -11 97 -20z m-916 -42 c3 -2 -27 -99
-35 -112 -2 -3 -101 36 -112 44 -2 1 8 27 22 57 l25 56 48 -21 c26 -11 50 -22
52 -24z m2591 -10 c7 -30 10 -58 7 -60 -6 -6 -347 -58 -351 -53 -2 2 -6 29
-10 60 l-6 57 93 12 c50 6 124 18 162 25 39 7 75 13 82 14 6 1 17 -24 23 -55z
m703 -106 c26 -69 26 -69 -32 -89 -30 -10 -55 -18 -56 -16 -6 7 -36 109 -34
111 9 6 85 34 95 35 6 1 18 -18 27 -41z m-343 -100 c6 -24 13 -51 16 -60 4
-13 -5 -20 -38 -28 -24 -6 -50 -13 -59 -16 -12 -3 -19 9 -28 52 -7 30 -11 58
-8 61 3 2 27 11 54 18 26 7 49 14 50 14 1 1 7 -18 13 -41z m-2275 0 c1 -2 -2
-29 -8 -61 -8 -45 -14 -56 -26 -53 -9 3 -37 10 -62 16 l-46 12 15 46 c7 26 15
52 17 59 3 9 17 8 55 -2 29 -8 53 -15 55 -17z m1931 -101 c11 -56 11 -56 -15
-61 -84 -17 -98 -17 -98 -4 0 7 -3 34 -7 60 l-7 47 38 6 c21 4 43 8 48 10 22
7 30 -4 41 -58z m-1584 34 c3 -3 2 -31 -4 -62 l-9 -55 -60 9 c-47 8 -59 13
-55 26 3 9 8 35 11 59 l7 44 52 -7 c28 -4 54 -10 58 -14z m1222 -43 c3 -13 7
-40 8 -60 4 -43 -3 -48 -67 -48 -47 0 -55 11 -55 82 0 37 0 37 48 41 26 2 50
4 54 5 4 1 10 -8 12 -20z m-2079 -418 c3 -5 -1 -10 -9 -10 -9 0 -16 5 -16 10
0 6 4 10 9 10 6 0 13 -4 16 -10z m-12 -34 c3 -7 0 -19 -6 -25 -6 -6 -7 -11 -3
-11 5 0 3 -7 -4 -15 -7 -8 -9 -15 -5 -15 4 0 2 -7 -5 -15 -7 -8 -9 -15 -5 -15
4 0 3 -6 -3 -12 -8 -11 -24 -65 -26 -90 -1 -3 -4 -9 -8 -13 -4 -4 -4 -13 -1
-21 3 -8 1 -14 -4 -14 -8 0 -37 -89 -38 -115 0 -5 -3 -12 -6 -15 -4 -3 -14
-34 -23 -69 -15 -60 -33 -97 -43 -87 -2 2 19 77 47 166 27 89 48 166 45 171
-4 5 -2 9 3 9 5 0 15 21 22 48 37 143 50 171 63 138z m1627 -471 c0 -230 -4
-355 -10 -355 -6 0 -10 68 -10 185 0 141 -3 185 -12 186 -10 0 -10 2 0 6 8 3
12 32 12 94 0 64 -3 89 -12 90 -10 0 -10 2 0 6 8 3 12 28 12 74 0 39 4 69 10
69 6 0 10 -125 10 -355z"/>
<path d="M4340 11606 c-27 -33 18 -72 48 -42 13 13 14 20 6 34 -15 23 -38 26
-54 8z"/>
<path d="M8030 11606 c-27 -33 18 -72 48 -42 13 13 14 20 6 34 -15 23 -38 26
-54 8z"/>
<path d="M4210 11476 c-27 -33 18 -72 48 -42 13 13 14 20 6 34 -15 23 -38 26
-54 8z"/>
<path d="M4470 11476 c-27 -33 18 -72 48 -42 13 13 14 20 6 34 -15 23 -38 26
-54 8z"/>
<path d="M8130 11476 c-27 -33 18 -72 48 -42 13 13 14 20 6 34 -15 23 -38 26
-54 8z"/>
<path d="M4340 11346 c-27 -33 18 -72 48 -42 13 13 14 20 6 34 -15 23 -38 26
-54 8z"/>
<path d="M8220 11346 c-27 -33 18 -72 48 -42 13 13 14 20 6 34 -15 23 -38 26
-54 8z"/>
<path d="M6520 11216 c-27 -33 18 -72 48 -42 13 13 14 20 6 34 -15 23 -38 26
-54 8z"/>
<path d="M8280 11216 c-27 -33 18 -72 48 -42 13 13 14 20 6 34 -15 23 -38 26
-54 8z"/>
<path d="M4470 11196 c-27 -33 18 -72 48 -42 13 13 14 20 6 34 -15 23 -38 26
-54 8z"/>
<path d="M6640 11106 c-27 -33 18 -72 48 -42 13 13 14 20 6 34 -15 23 -38 26
-54 8z"/>
<path d="M8280 11106 c-27 -33 18 -72 48 -42 13 13 14 20 6 34 -15 23 -38 26
-54 8z"/>
<path d="M4620 11066 c-27 -33 18 -72 48 -42 13 13 14 20 6 34 -15 23 -38 26
-54 8z"/>
<path d="M8280 10966 c-27 -33 18 -72 48 -42 13 13 14 20 6 34 -15 23 -38 26
-54 8z"/>
<path d="M5720 10946 c-27 -33 18 -72 48 -42 13 13 14 20 6 34 -15 23 -38 26
-54 8z"/>
<path d="M5830 10946 c-27 -33 18 -72 48 -42 13 13 14 20 6 34 -15 23 -38 26
-54 8z"/>
<path d="M6282 10834 c-28 -32 16 -70 46 -40 13 13 14 20 6 34 -15 23 -36 25
-52 6z"/>
<path d="M5720 10836 c-27 -33 18 -72 48 -42 13 13 14 20 6 34 -15 23 -38 26
-54 8z"/>
<path d="M5720 7266 c-27 -33 18 -72 48 -42 13 13 14 20 6 34 -15 23 -38 26
-54 8z"/>
<path d="M6040 10836 c-27 -33 18 -72 48 -42 13 13 14 20 6 34 -15 23 -38 26
-54 8z"/>
<path d="M6150 10836 c-27 -33 18 -72 48 -42 13 13 14 20 6 34 -15 23 -38 26
-54 8z"/>
<path d="M6635 7267 c-20 -16 -15 -44 11 -54 23 -9 51 23 38 44 -14 23 -27 26
-49 10z"/>
<path d="M6090 10716 c-27 -33 18 -72 48 -42 13 13 14 20 6 34 -15 23 -38 26
-54 8z"/>
<path d="M6220 10716 c-27 -33 18 -72 48 -42 13 13 14 20 6 34 -15 23 -38 26
-54 8z"/>
<path d="M5830 9306 c-27 -33 18 -72 48 -42 13 13 14 20 6 34 -15 23 -38 26
-54 8z"/>
<path d="M6540 8946 c-27 -33 18 -72 48 -42 13 13 14 20 6 34 -15 23 -38 26
-54 8z"/>
<path d="M5950 8856 c-27 -33 18 -72 48 -42 13 13 14 20 6 34 -15 23 -38 26
-54 8z"/>
<path d="M5950 8746 c-27 -33 18 -72 48 -42 13 13 14 20 6 34 -15 23 -38 26
-54 8z"/>
<path d="M7560 10716 c-27 -33 18 -72 48 -42 13 13 14 20 6 34 -15 23 -38 26
-54 8z"/>
<path d="M7609 7289 c-9 -17 -8 -25 4 -37 29 -28 73 12 47 43 -17 21 -37 19
-51 -6z"/>
<path d="M9430 10596 c-27 -33 18 -72 48 -42 13 13 14 20 6 34 -15 23 -38 26
-54 8z"/>
<path d="M7160 8226 c-27 -33 18 -72 48 -42 13 13 14 20 6 34 -15 23 -38 26
-54 8z"/>
<path d="M6470 10676 c-27 -33 18 -72 48 -42 13 13 14 20 6 34 -15 23 -38 26
-54 8z"/>
<path d="M8840 10666 c-27 -33 18 -72 48 -42 13 13 14 20 6 34 -15 23 -38 26
-54 8z"/>
<path d="M5830 10626 c-27 -33 18 -72 48 -42 13 13 14 20 6 34 -15 23 -38 26
-54 8z"/>
<path d="M6010 9786 c-27 -33 18 -72 48 -42 13 13 14 20 6 34 -15 23 -38 26
-54 8z"/>
<path d="M8100 10416 c-27 -33 18 -72 48 -42 13 13 14 20 6 34 -15 23 -38 26
-54 8z"/>
<path d="M8950 10596 c-27 -33 18 -72 48 -42 13 13 14 20 6 34 -15 23 -38 26
-54 8z"/>
<path d="M9194 10595 c-4 -9 -2 -21 4 -27 15 -15 44 -1 40 19 -4 23 -36 29
-44 8z"/>
<path d="M5910 10536 c-27 -33 18 -72 48 -42 13 13 14 20 6 34 -15 23 -38 26
-54 8z"/>
<path d="M6310 10516 c-27 -33 18 -72 48 -42 13 13 14 20 6 34 -15 23 -38 26
-54 8z"/>
<path d="M9070 10506 c-27 -33 18 -72 48 -42 13 13 14 20 6 34 -15 23 -38 26
-54 8z"/>
<path d="M6280 9936 c-27 -33 18 -72 48 -42 13 13 14 20 6 34 -15 23 -38 26
-54 8z"/>
<path d="M5990 10446 c-27 -33 18 -72 48 -42 13 13 14 20 6 34 -15 23 -38 26
-54 8z"/>
<path d="M9430 10446 c-27 -33 18 -72 48 -42 13 13 14 20 6 34 -15 23 -38 26
-54 8z"/>
<path d="M7250 10116 c-27 -33 18 -72 48 -42 13 13 14 20 6 34 -15 23 -38 26
-54 8z"/>
<path d="M6310 10396 c-27 -33 18 -72 48 -42 13 13 14 20 6 34 -15 23 -38 26
-54 8z"/>
<path d="M9300 10326 c-27 -33 18 -72 48 -42 13 13 14 20 6 34 -15 23 -38 26
-54 8z"/>
<path d="M8083 10263 c-20 -7 -15 -41 6 -48 26 -8 51 4 51 25 0 24 -28 35 -57
23z"/>
<path d="M7390 10246 c-27 -33 18 -72 48 -42 13 13 14 20 6 34 -15 23 -38 26
-54 8z"/>
<path d="M7570 10246 c-27 -33 18 -72 48 -42 13 13 14 20 6 34 -15 23 -38 26
-54 8z"/>
<path d="M7750 10246 c-27 -33 18 -72 48 -42 13 13 14 20 6 34 -15 23 -38 26
-54 8z"/>
<path d="M6360 9826 c-27 -33 18 -72 48 -42 13 13 14 20 6 34 -15 23 -38 26
-54 8z"/>
<path d="M6430 9726 c-27 -33 18 -72 48 -42 13 13 14 20 6 34 -15 23 -38 26
-54 8z"/>
<path d="M7060 10156 c-27 -33 18 -72 48 -42 13 13 14 20 6 34 -15 23 -38 26
-54 8z"/>
<path d="M5990 10066 c-27 -33 18 -72 48 -42 13 13 14 20 6 34 -15 23 -38 26
-54 8z"/>
<path d="M8100 10046 c-27 -33 18 -72 48 -42 13 13 14 20 6 34 -15 23 -38 26
-54 8z"/>
<path d="M7320 10006 c-27 -33 18 -72 48 -42 13 13 14 20 6 34 -15 23 -38 26
-54 8z"/>
<path d="M7430 10006 c-27 -33 18 -72 48 -42 13 13 14 20 6 34 -15 23 -38 26
-54 8z"/>
<path d="M7330 8056 c-27 -33 18 -72 48 -42 13 13 14 20 6 34 -15 23 -38 26
-54 8z"/>
<path d="M7770 9996 c-27 -33 18 -72 48 -42 13 13 14 20 6 34 -15 23 -38 26
-54 8z"/>
<path d="M5900 9926 c-27 -33 18 -72 48 -42 13 13 14 20 6 34 -15 23 -38 26
-54 8z"/>
<path d="M7510 9576 c-27 -33 18 -72 48 -42 13 13 14 20 6 34 -15 23 -38 26
-54 8z"/>
<path d="M6400 9546 c-27 -33 18 -72 48 -42 13 13 14 20 6 34 -15 23 -38 26
-54 8z"/>
<path d="M5940 9506 c-27 -33 18 -72 48 -42 13 13 14 20 6 34 -15 23 -38 26
-54 8z"/>
<path d="M6400 9426 c-27 -33 18 -72 48 -42 13 13 14 20 6 34 -15 23 -38 26
-54 8z"/>
<path d="M5940 9386 c-27 -33 18 -72 48 -42 13 13 14 20 6 34 -15 23 -38 26
-54 8z"/>
<path d="M5830 9196 c-27 -33 18 -72 48 -42 13 13 14 20 6 34 -15 23 -38 26
-54 8z"/>
<path d="M5830 8966 c-27 -33 18 -72 48 -42 13 13 14 20 6 34 -15 23 -38 26
-54 8z"/>
<path d="M6420 9146 c-27 -33 18 -72 48 -42 13 13 14 20 6 34 -15 23 -38 26
-54 8z"/>
<path d="M5830 9086 c-27 -33 18 -72 48 -42 13 13 14 20 6 34 -15 23 -38 26
-54 8z"/>
<path d="M6360 8866 c-27 -33 18 -72 48 -42 13 13 14 20 6 34 -15 23 -38 26
-54 8z"/>
<path d="M6540 8816 c-27 -33 18 -72 48 -42 13 13 14 20 6 34 -15 23 -38 26
-54 8z"/>
<path d="M6540 8696 c-27 -33 18 -72 48 -42 13 13 14 20 6 34 -15 23 -38 26
-54 8z"/>
<path d="M5950 8646 c-27 -33 18 -72 48 -42 13 13 14 20 6 34 -15 23 -38 26
-54 8z"/>
<path d="M6540 8586 c-27 -33 18 -72 48 -42 13 13 14 20 6 34 -15 23 -38 26
-54 8z"/>
<path d="M6540 8466 c-27 -33 18 -72 48 -42 13 13 14 20 6 34 -15 23 -38 26
-54 8z"/>
<path d="M7330 8416 c-27 -33 18 -72 48 -42 13 13 14 20 6 34 -15 23 -38 26
-54 8z"/>
<path d="M5970 8396 c-27 -33 18 -72 48 -42 13 13 14 20 6 34 -15 23 -38 26
-54 8z"/>
<path d="M6320 8396 c-27 -33 18 -72 48 -42 13 13 14 20 6 34 -15 23 -38 26
-54 8z"/>
<path d="M5870 8306 c-27 -33 18 -72 48 -42 13 13 14 20 6 34 -15 23 -38 26
-54 8z"/>
<path d="M6420 8306 c-27 -33 18 -72 48 -42 13 13 14 20 6 34 -15 23 -38 26
-54 8z"/>
<path d="M7280 7866 c-27 -33 18 -72 48 -42 13 13 14 20 6 34 -15 23 -38 26
-54 8z"/>
<path d="M8150 7866 c-27 -33 18 -72 48 -42 13 13 14 20 6 34 -15 23 -38 26
-54 8z"/>
<path d="M8420 7866 c-27 -33 18 -72 48 -42 13 13 14 20 6 34 -15 23 -38 26
-54 8z"/>
<path d="M9160 7866 c-27 -33 18 -72 48 -42 13 13 14 20 6 34 -15 23 -38 26
-54 8z"/>
<path d="M7390 7756 c-27 -33 18 -72 48 -42 13 13 14 20 6 34 -15 23 -38 26
-54 8z"/>
<path d="M8290 7756 c-27 -33 18 -72 48 -42 13 13 14 20 6 34 -15 23 -38 26
-54 8z"/>
<path d="M8510 7756 c-27 -33 18 -72 48 -42 13 13 14 20 6 34 -15 23 -38 26
-54 8z"/>
<path d="M9250 7756 c-27 -33 18 -72 48 -42 13 13 14 20 6 34 -15 23 -38 26
-54 8z"/>
<path d="M9430 7386 c-27 -33 18 -72 48 -42 13 13 14 20 6 34 -15 23 -38 26
-54 8z"/>
<path d="M4180 7615 c-26 -32 13 -81 48 -59 34 22 22 74 -18 74 -10 0 -23 -7
-30 -15z"/>
<path d="M10102 7618 c-27 -27 -3 -73 35 -66 27 5 25 72 -2 76 -11 1 -26 -3
-33 -10z"/>
<path d="M4030 7655 c-26 -32 13 -81 48 -59 34 22 22 74 -18 74 -10 0 -23 -7
-30 -15z"/>
<path d="M10250 7655 c-26 -32 13 -81 48 -59 34 22 22 74 -18 74 -10 0 -23 -7
-30 -15z"/>
<path d="M7510 7636 c-27 -33 18 -72 48 -42 13 13 14 20 6 34 -15 23 -38 26
-54 8z"/>
<path d="M8600 7636 c-27 -33 18 -72 48 -42 13 13 14 20 6 34 -15 23 -38 26
-54 8z"/>
<path d="M9340 7636 c-27 -33 18 -72 48 -42 13 13 14 20 6 34 -15 23 -38 26
-54 8z"/>
<path d="M3852 7568 c-32 -32 18 -87 53 -58 28 23 12 70 -25 70 -9 0 -21 -5
-28 -12z"/>
<path d="M10432 7568 c-32 -32 2 -79 43 -60 39 18 27 72 -15 72 -9 0 -21 -5
-28 -12z"/>
<path d="M5970 7546 c-27 -33 18 -72 48 -42 13 13 14 20 6 34 -15 23 -38 26
-54 8z"/>
<path d="M6320 7546 c-27 -33 18 -72 48 -42 13 13 14 20 6 34 -15 23 -38 26
-54 8z"/>
<path d="M6420 7546 c-27 -33 18 -72 48 -42 13 13 14 20 6 34 -15 23 -38 26
-54 8z"/>
<path d="M8060 7546 c-27 -33 18 -72 48 -42 13 13 14 20 6 34 -15 23 -38 26
-54 8z"/>
<path d="M8210 7545 c-24 -29 15 -70 44 -46 15 12 16 28 3 49 -11 16 -32 15
-47 -3z"/>
<path d="M9340 7536 c-27 -33 18 -72 48 -42 13 13 14 20 6 34 -15 23 -38 26
-54 8z"/>
<path d="M7620 7526 c-27 -33 18 -72 48 -42 13 13 14 20 6 34 -15 23 -38 26
-54 8z"/>
<path d="M5970 7356 c-27 -33 18 -72 48 -42 13 13 14 20 6 34 -15 23 -38 26
-54 8z"/>
<path d="M7710 7396 c-27 -33 18 -72 48 -42 13 13 14 20 6 34 -15 23 -38 26
-54 8z"/>
<path d="M8310 7476 c-27 -33 18 -72 48 -42 13 13 14 20 6 34 -15 23 -38 26
-54 8z"/>
<path d="M8930 7476 c-27 -33 18 -72 48 -42 13 13 14 20 6 34 -15 23 -38 26
-54 8z"/>
<path d="M5870 7456 c-27 -33 18 -72 48 -42 13 13 14 20 6 34 -15 23 -38 26
-54 8z"/>
<path d="M6090 7456 c-27 -33 18 -72 48 -42 13 13 14 20 6 34 -15 23 -38 26
-54 8z"/>
<path d="M6230 7456 c-27 -33 18 -72 48 -42 13 13 14 20 6 34 -15 23 -38 26
-54 8z"/>
<path d="M6550 7456 c-27 -33 18 -72 48 -42 13 13 14 20 6 34 -15 23 -38 26
-54 8z"/>
<path d="M8130 7456 c-27 -33 18 -72 48 -42 13 13 14 20 6 34 -15 23 -38 26
-54 8z"/>
<path d="M9310 7416 c-27 -33 18 -72 48 -42 13 13 14 20 6 34 -15 23 -38 26
-54 8z"/>
<path d="M8850 7386 c-27 -33 18 -72 48 -42 13 13 14 20 6 34 -15 23 -38 26
-54 8z"/>
<path d="M9000 7386 c-27 -33 18 -72 48 -42 13 13 14 20 6 34 -15 23 -38 26
-54 8z"/>
<path d="M9180 7386 c-27 -33 18 -72 48 -42 13 13 14 20 6 34 -15 23 -38 26
-54 8z"/>
<path d="M9290 7296 c-27 -33 18 -72 48 -42 13 13 14 20 6 34 -15 23 -38 26
-54 8z"/>
<path d="M4520 7265 c-26 -32 13 -81 48 -59 34 22 22 74 -18 74 -10 0 -23 -7
-30 -15z"/>
<path d="M9750 7265 c-26 -32 13 -81 48 -59 34 22 22 74 -18 74 -10 0 -23 -7
-30 -15z"/>
<path d="M6420 5155 c-26 -32 13 -81 48 -59 34 22 22 74 -18 74 -10 0 -23 -7
-30 -15z"/>
<path d="M5850 5945 c-26 -32 13 -81 48 -59 34 22 22 74 -18 74 -10 0 -23 -7
-30 -15z"/>
<path d="M8420 5945 c-26 -32 13 -81 48 -59 34 22 22 74 -18 74 -10 0 -23 -7
-30 -15z"/>
<path d="M5820 5155 c-26 -32 13 -81 48 -59 34 22 22 74 -18 74 -10 0 -23 -7
-30 -15z"/>
<path d="M8460 5155 c-26 -32 13 -81 48 -59 34 22 22 74 -18 74 -10 0 -23 -7
-30 -15z"/>
<path d="M7860 5155 c-26 -32 13 -81 48 -59 34 22 22 74 -18 74 -10 0 -23 -7
-30 -15z"/>
<path d="M6300 5155 c-26 -32 13 -81 48 -59 34 22 22 74 -18 74 -10 0 -23 -7
-30 -15z"/>
<path d="M7980 5155 c-26 -32 13 -81 48 -59 34 22 22 74 -18 74 -10 0 -23 -7
-30 -15z"/>
<path d="M6200 5455 c-26 -32 13 -81 48 -59 34 22 22 74 -18 74 -10 0 -23 -7
-30 -15z"/>
<path d="M8070 5455 c-26 -32 13 -81 48 -59 34 22 22 74 -18 74 -10 0 -23 -7
-30 -15z"/>
<path d="M4150 5390 c0 -5 5 -10 10 -10 6 0 10 5 10 10 0 6 -4 10 -10 10 -5 0
-10 -4 -10 -10z"/>
<path d="M5930 5155 c-26 -32 13 -81 48 -59 34 22 22 74 -18 74 -10 0 -23 -7
-30 -15z"/>
<path d="M8340 5155 c-26 -32 13 -81 48 -59 34 22 22 74 -18 74 -10 0 -23 -7
-30 -15z"/>
<path d="M6050 5155 c-26 -32 13 -81 48 -59 34 22 22 74 -18 74 -10 0 -23 -7
-30 -15z"/>
<path d="M6160 5155 c-26 -32 13 -81 48 -59 34 22 22 74 -18 74 -10 0 -23 -7
-30 -15z"/>
<path d="M6530 5155 c-26 -32 13 -81 48 -59 34 22 22 74 -18 74 -10 0 -23 -7
-30 -15z"/>
<path d="M6650 5155 c-26 -32 13 -81 48 -59 34 22 22 74 -18 74 -10 0 -23 -7
-30 -15z"/>
<path d="M6760 5155 c-26 -32 13 -81 48 -59 34 22 22 74 -18 74 -10 0 -23 -7
-30 -15z"/>
<path d="M6880 5155 c-26 -32 13 -81 48 -59 34 22 22 74 -18 74 -10 0 -23 -7
-30 -15z"/>
<path d="M7400 5155 c-26 -32 13 -81 48 -59 34 22 22 74 -18 74 -10 0 -23 -7
-30 -15z"/>
<path d="M7510 5155 c-26 -32 13 -81 48 -59 34 22 22 74 -18 74 -10 0 -23 -7
-30 -15z"/>
<path d="M7630 5155 c-26 -32 13 -81 48 -59 34 22 22 74 -18 74 -10 0 -23 -7
-30 -15z"/>
<path d="M7750 5155 c-26 -32 13 -81 48 -59 34 22 22 74 -18 74 -10 0 -23 -7
-30 -15z"/>
<path d="M8110 5155 c-26 -32 13 -81 48 -59 34 22 22 74 -18 74 -10 0 -23 -7
-30 -15z"/>
<path d="M8230 5155 c-26 -32 13 -81 48 -59 34 22 22 74 -18 74 -10 0 -23 -7
-30 -15z"/>
</g>
</svg>
